<svg width="1453" height="2906" viewBox="0 0 1453 2906" fill="none" xmlns="http://www.w3.org/2000/svg">
<path d="M726.657 1377.76C725.342 1377.76 724.027 1376.97 723.501 1375.92L354.549 709.804C354.023 708.752 354.023 707.174 354.549 706.122C355.337 705.07 356.389 704.281 357.704 704.281L1095.61 704.281C1096.92 704.281 1098.24 705.07 1098.77 706.122C1099.55 707.174 1099.55 708.752 1098.77 709.803L729.813 1375.92C729.287 1376.97 727.972 1377.76 726.657 1377.76ZM364.016 711.644L726.657 1366.45L1089.3 711.644L364.016 711.644Z" fill="#0F0F0F"/>
<path d="M1449.31 1353.83L4.26476 1353.83C2.94989 1353.83 1.63515 1353.04 1.1092 1351.99C0.320278 1350.94 0.320278 1349.36 1.1092 1348.31L723.499 10.8187C724.025 9.50385 725.34 8.97803 726.655 8.97803C727.97 8.97803 729.285 9.76682 729.811 10.8187L1451.94 1347.78C1452.46 1348.31 1452.73 1349.09 1452.73 1350.15C1452.99 1351.99 1451.41 1353.83 1449.31 1353.83ZM10.3133 1346.47L1443 1346.46L726.655 20.5486L10.3133 1346.47Z" fill="#0F0F0F"/>
<path d="M1095.61 1139.51L357.7 1139.51C356.385 1139.51 355.07 1138.72 354.544 1137.67C353.755 1136.62 353.755 1135.04 354.544 1133.99L723.497 467.872C724.023 466.82 725.338 466.031 726.653 466.031C727.968 466.031 729.282 466.82 729.808 467.872L1098.5 1133.46C1099.02 1133.99 1099.29 1134.77 1099.29 1135.83C1099.29 1137.93 1097.71 1139.51 1095.61 1139.51ZM364.011 1132.14L1089.29 1132.14L726.653 477.602L364.011 1132.14Z" fill="#0F0F0F"/>
<path d="M726.916 1352.51C724.812 1352.51 722.708 1352.51 720.604 1352.51C719.289 1352.51 718.237 1351.46 718.237 1349.88C718.237 1348.57 719.552 1347.52 720.867 1347.52C722.971 1347.52 725.075 1347.52 726.916 1347.52C729.019 1347.52 730.86 1347.52 732.964 1347.52C734.279 1347.52 735.331 1348.57 735.331 1349.88C735.331 1351.2 734.279 1352.25 732.964 1352.51C731.123 1352.51 729.019 1352.51 726.916 1352.51ZM708.507 1352.25C708.507 1352.25 708.244 1352.25 708.507 1352.25C704.3 1351.99 700.092 1351.72 696.148 1351.46C694.833 1351.46 693.781 1350.15 693.781 1348.83C693.781 1347.52 695.096 1346.47 696.411 1346.47C700.355 1346.73 704.563 1346.99 708.77 1347.25C710.085 1347.25 711.137 1348.57 711.137 1349.88C710.874 1351.2 709.822 1352.25 708.507 1352.25ZM745.324 1351.99C744.009 1351.99 742.957 1350.94 742.957 1349.62C742.957 1348.31 744.009 1346.99 745.324 1346.99C749.531 1346.73 753.476 1346.47 757.683 1346.2C758.998 1346.2 760.313 1347.25 760.313 1348.57C760.313 1349.88 759.262 1351.2 757.947 1351.2C753.739 1351.72 749.531 1351.99 745.324 1351.99C745.324 1351.99 745.587 1351.99 745.324 1351.99ZM683.788 1350.41C683.788 1350.41 683.525 1350.41 683.788 1350.41C679.317 1349.88 675.373 1349.62 671.165 1349.1C669.85 1348.83 668.798 1347.78 669.061 1346.47C669.324 1345.15 670.376 1344.1 671.691 1344.36C675.636 1344.89 679.843 1345.41 683.788 1345.68C685.103 1345.94 686.155 1346.99 685.892 1348.31C686.155 1349.36 685.103 1350.41 683.788 1350.41ZM770.043 1350.41C768.729 1350.41 767.677 1349.36 767.677 1348.31C767.414 1346.99 768.466 1345.68 769.781 1345.68C773.725 1345.15 777.933 1344.89 781.877 1344.36C783.192 1344.1 784.507 1345.15 784.77 1346.47C785.033 1347.78 783.981 1349.1 782.666 1349.36C778.458 1349.36 774.251 1349.88 770.043 1350.41ZM659.331 1347.25L659.068 1347.25C655.124 1346.73 650.916 1345.94 646.971 1345.15C645.656 1344.89 644.868 1343.57 645.131 1342.26C645.394 1340.94 646.708 1340.15 648.023 1340.42C651.968 1341.21 656.175 1341.99 660.12 1342.52C661.435 1342.78 662.487 1344.1 662.224 1345.41C661.698 1346.47 660.646 1347.25 659.331 1347.25ZM794.5 1347.25C793.185 1347.25 792.133 1346.47 792.133 1345.15C791.87 1343.84 792.922 1342.52 794.237 1342.26C798.182 1341.73 802.389 1340.94 806.334 1340.15C807.649 1339.89 808.964 1340.68 809.227 1341.99C809.49 1343.31 808.701 1344.62 807.386 1344.89C803.441 1345.68 799.234 1346.47 795.289 1346.99C794.763 1347.25 794.5 1347.25 794.5 1347.25ZM635.138 1342.78C634.875 1342.78 634.875 1342.78 634.612 1342.78C630.667 1341.99 626.46 1340.94 622.515 1339.89C621.2 1339.63 620.411 1338.31 620.674 1337C620.937 1335.68 622.252 1334.89 623.567 1335.16C627.511 1336.21 631.456 1337 635.4 1338.05C636.715 1338.31 637.504 1339.63 637.241 1340.94C637.241 1341.99 636.189 1342.78 635.138 1342.78ZM818.694 1342.52C817.642 1342.52 816.59 1341.73 816.327 1340.68C816.064 1339.37 816.853 1338.05 818.168 1337.79C822.112 1337 826.057 1335.95 830.001 1334.89C831.316 1334.63 832.631 1335.42 832.894 1336.74C833.157 1338.05 832.368 1339.36 831.053 1339.63C827.109 1340.68 822.901 1341.47 818.957 1342.52C818.957 1342.52 818.957 1342.52 818.694 1342.52ZM611.207 1336.74C610.944 1336.74 610.681 1336.74 610.418 1336.74C606.473 1335.68 602.529 1334.37 598.584 1333.32C597.269 1332.79 596.48 1331.48 597.006 1330.16C597.532 1328.85 598.847 1328.06 600.162 1328.58C604.107 1329.9 608.051 1330.95 611.996 1332C613.311 1332.26 614.1 1333.84 613.837 1335.16C613.311 1335.95 612.259 1336.74 611.207 1336.74ZM842.624 1336.74C841.572 1336.74 840.52 1335.95 840.257 1334.89C839.994 1333.58 840.783 1332.26 841.835 1331.74C845.78 1330.69 849.724 1329.37 853.669 1328.32C854.984 1327.79 856.299 1328.58 856.825 1329.9C857.351 1331.21 856.562 1332.53 855.247 1333.05C851.303 1334.37 847.358 1335.42 843.413 1336.47C843.15 1336.47 842.887 1336.74 842.624 1336.74ZM587.539 1329.37C587.276 1329.37 587.013 1329.37 586.75 1329.11C582.806 1327.79 578.861 1326.48 574.916 1324.9C573.601 1324.38 573.076 1323.06 573.601 1321.75C574.127 1320.43 575.442 1319.9 576.757 1320.43C580.702 1321.75 584.384 1323.32 588.328 1324.64C589.643 1325.16 590.432 1326.48 589.906 1327.79C589.643 1328.85 588.591 1329.37 587.539 1329.37ZM866.292 1329.37C865.24 1329.37 864.188 1328.85 863.925 1327.79C863.399 1326.48 864.188 1325.16 865.503 1324.64C869.448 1323.32 873.129 1322.01 877.074 1320.43C878.389 1319.9 879.704 1320.69 880.23 1321.75C880.756 1323.06 879.967 1324.38 878.915 1324.9C874.97 1326.48 871.026 1327.79 867.344 1329.11C866.818 1329.11 866.555 1329.37 866.292 1329.37ZM564.397 1320.69C564.134 1320.69 563.872 1320.69 563.346 1320.43C559.664 1318.85 555.719 1317.28 551.775 1315.43C550.46 1314.91 549.934 1313.33 550.46 1312.28C550.986 1310.96 552.564 1310.44 553.616 1310.96C557.297 1312.54 561.242 1314.12 564.924 1315.7C566.238 1316.22 566.764 1317.54 566.238 1318.85C566.238 1320.17 565.449 1320.69 564.397 1320.69ZM889.171 1320.69C888.119 1320.69 887.33 1320.17 886.804 1319.12C886.278 1317.8 886.804 1316.49 888.119 1315.96C891.801 1314.38 895.745 1312.8 899.427 1311.23C900.742 1310.7 902.057 1311.23 902.583 1312.54C903.108 1313.86 902.583 1315.17 901.268 1315.7C897.586 1317.28 893.641 1319.12 889.96 1320.43C889.96 1320.43 889.697 1320.69 889.171 1320.69ZM541.782 1310.7C541.519 1310.7 540.993 1310.7 540.73 1310.44C537.048 1308.6 533.367 1306.76 529.685 1304.92C528.37 1304.39 528.107 1302.81 528.633 1301.5C529.159 1300.18 530.737 1299.92 532.052 1300.44C535.733 1302.29 539.415 1304.13 543.097 1305.97C544.411 1306.49 544.937 1308.07 544.148 1309.39C543.623 1310.17 542.834 1310.7 541.782 1310.7ZM911.787 1310.44C910.998 1310.44 909.946 1309.91 909.683 1309.12C909.157 1307.81 909.683 1306.49 910.735 1305.7C914.416 1303.86 918.098 1302.02 921.779 1300.18C923.094 1299.66 924.409 1299.92 925.198 1301.23C925.724 1302.55 925.461 1303.86 924.146 1304.65C920.465 1306.49 916.783 1308.33 913.101 1310.17C912.576 1310.44 912.05 1310.44 911.787 1310.44ZM519.955 1299.39C519.429 1299.39 519.166 1299.39 518.64 1299.13C514.958 1297.03 511.54 1295.19 507.858 1293.08C506.806 1292.29 506.28 1290.98 507.069 1289.66C507.858 1288.61 509.173 1288.09 510.488 1288.87C513.906 1290.98 517.588 1293.08 521.27 1294.92C522.585 1295.71 522.847 1297.03 522.322 1298.34C521.533 1298.87 520.744 1299.39 519.955 1299.39ZM933.613 1299.39C932.824 1299.39 931.773 1298.87 931.51 1298.08C930.721 1296.76 931.246 1295.45 932.561 1294.66C935.98 1292.82 939.662 1290.71 943.08 1288.61C944.132 1287.82 945.71 1288.35 946.499 1289.4C947.288 1290.45 946.762 1292.03 945.71 1292.82C942.028 1294.92 938.61 1297.03 934.928 1298.87C934.402 1299.13 934.139 1299.39 933.613 1299.39ZM954.914 1286.77C954.125 1286.77 953.336 1286.24 952.811 1285.72C952.022 1284.67 952.547 1283.09 953.599 1282.3C957.018 1280.2 960.437 1277.83 963.855 1275.73C964.907 1274.94 966.485 1275.2 967.274 1276.51C968.063 1277.57 967.8 1279.14 966.485 1279.93C963.066 1282.3 959.648 1284.4 956.229 1286.77C955.703 1286.51 955.177 1286.77 954.914 1286.77ZM498.654 1286.77C498.128 1286.77 497.865 1286.77 497.339 1286.51C493.92 1284.4 490.239 1282.04 486.82 1279.67C485.768 1278.88 485.505 1277.3 486.031 1276.25C486.82 1275.2 488.398 1274.94 489.45 1275.46C492.868 1277.83 496.287 1279.93 499.706 1282.04C500.758 1282.83 501.284 1284.4 500.495 1285.46C500.232 1286.24 499.443 1286.77 498.654 1286.77ZM975.163 1273.1C974.374 1273.1 973.585 1272.83 973.059 1272.04C972.27 1270.99 972.534 1269.41 973.586 1268.62C977.004 1266.26 980.16 1263.89 983.578 1261.26C984.63 1260.47 986.208 1260.74 986.997 1261.79C987.786 1262.84 987.523 1264.42 986.471 1265.21C983.315 1267.57 979.897 1270.2 976.478 1272.57C976.215 1272.83 975.689 1273.1 975.163 1273.1ZM478.142 1272.83C477.616 1272.83 477.09 1272.57 476.827 1272.31C473.408 1269.94 470.253 1267.57 466.834 1264.94C465.782 1264.15 465.519 1262.58 466.308 1261.52C467.097 1260.47 468.675 1260.21 469.727 1261C472.882 1263.37 476.301 1266 479.72 1268.36C480.772 1269.15 481.035 1270.73 480.246 1271.78C479.457 1272.57 478.931 1272.83 478.142 1272.83ZM994.886 1258.11C994.097 1258.11 993.571 1257.84 993.045 1257.32C992.256 1256.27 992.257 1254.69 993.309 1253.9C996.464 1251.27 999.62 1248.64 1002.78 1246.01C1003.83 1245.22 1005.41 1245.22 1006.19 1246.27C1006.98 1247.32 1006.98 1248.9 1005.93 1249.69C1002.78 1252.32 999.62 1254.95 996.464 1257.58C995.938 1257.84 995.412 1258.11 994.886 1258.11ZM458.419 1258.11C457.893 1258.11 457.367 1257.84 456.841 1257.58C453.685 1254.95 450.53 1252.32 447.374 1249.69C446.322 1248.9 446.322 1247.32 447.111 1246.27C447.9 1245.22 449.478 1245.22 450.53 1246.01C453.685 1248.64 456.841 1251.27 459.997 1253.9C461.049 1254.69 461.312 1256.27 460.26 1257.32C459.734 1257.58 459.208 1258.11 458.419 1258.11ZM1013.56 1242.06C1012.77 1242.06 1012.24 1241.8 1011.72 1241.28C1010.93 1240.22 1010.93 1238.65 1011.98 1237.86C1014.87 1235.23 1018.03 1232.33 1020.92 1229.44C1021.97 1228.39 1023.55 1228.65 1024.34 1229.44C1025.39 1230.49 1025.13 1232.07 1024.34 1232.86C1021.45 1235.75 1018.29 1238.65 1015.14 1241.28C1014.87 1241.8 1014.35 1242.06 1013.56 1242.06ZM439.748 1242.06C439.222 1242.06 438.696 1241.8 438.17 1241.54C435.014 1238.91 432.121 1236.02 428.966 1233.12C427.914 1232.07 427.914 1230.49 428.966 1229.7C430.018 1228.65 431.596 1228.65 432.384 1229.7C435.277 1232.6 438.433 1235.23 441.326 1238.12C442.378 1238.91 442.377 1240.49 441.589 1241.54C441.063 1241.8 440.274 1242.06 439.748 1242.06ZM1031.44 1224.97C1030.91 1224.97 1030.12 1224.71 1029.6 1224.18C1028.55 1223.13 1028.55 1221.55 1029.6 1220.76C1032.49 1217.87 1035.38 1214.98 1038.01 1211.82C1039.07 1210.77 1040.38 1210.77 1041.43 1211.82C1042.48 1212.87 1042.48 1214.19 1041.43 1215.24C1038.54 1218.13 1035.65 1221.29 1032.75 1224.18C1032.75 1224.71 1032.23 1224.97 1031.44 1224.97ZM421.865 1224.97C421.34 1224.97 420.551 1224.71 420.025 1224.18C417.132 1221.29 414.239 1218.13 411.346 1215.24C410.295 1214.19 410.558 1212.61 411.346 1211.82C412.398 1210.77 413.976 1211.03 414.765 1211.82C417.658 1214.72 420.288 1217.87 423.18 1220.76C424.232 1221.82 424.232 1223.39 423.18 1224.18C423.18 1224.71 422.391 1224.97 421.865 1224.97ZM1048.27 1207.09C1047.74 1207.09 1047.22 1206.83 1046.69 1206.56C1045.64 1205.77 1045.64 1204.2 1046.43 1203.14C1049.06 1199.99 1051.69 1196.83 1054.32 1193.94C1055.11 1192.89 1056.69 1192.63 1057.74 1193.68C1058.79 1194.47 1059.05 1196.04 1058 1197.1C1055.37 1200.25 1052.74 1203.41 1049.85 1206.56C1049.59 1206.83 1049.06 1207.09 1048.27 1207.09ZM405.035 1206.83C404.246 1206.83 403.72 1206.56 403.194 1206.04C400.565 1202.88 397.672 1199.73 395.042 1196.57C394.253 1195.52 394.253 1193.94 395.305 1193.15C396.357 1192.36 397.935 1192.36 398.724 1193.41C401.353 1196.57 403.983 1199.73 406.613 1202.62C407.402 1203.67 407.402 1205.25 406.35 1206.04C406.087 1206.56 405.561 1206.83 405.035 1206.83ZM1064.05 1187.89C1063.52 1187.89 1063 1187.63 1062.47 1187.37C1061.42 1186.58 1061.16 1185 1061.94 1183.95C1064.57 1180.79 1066.94 1177.37 1069.31 1174.22C1070.1 1173.17 1071.67 1172.9 1072.73 1173.69C1073.78 1174.48 1074.04 1176.06 1073.25 1177.11C1070.89 1180.53 1068.26 1183.68 1065.63 1187.1C1065.63 1187.63 1064.84 1187.89 1064.05 1187.89ZM389.257 1187.89C388.468 1187.89 387.679 1187.63 387.416 1186.84C384.786 1183.68 382.419 1180.27 379.79 1176.85C379.001 1175.8 379.264 1174.22 380.315 1173.43C381.367 1172.64 382.945 1172.9 383.734 1173.95C386.101 1177.37 388.731 1180.53 391.098 1183.68C391.887 1184.74 391.623 1186.31 390.571 1187.1C390.308 1187.63 389.783 1187.89 389.257 1187.89ZM1078.78 1168.17C1078.25 1168.17 1077.72 1167.91 1077.46 1167.64C1076.41 1166.85 1076.15 1165.28 1076.93 1164.22C1079.3 1160.81 1081.67 1157.39 1083.77 1153.97C1084.56 1152.92 1086.14 1152.39 1087.19 1153.18C1088.24 1153.97 1088.77 1155.55 1087.98 1156.6C1085.61 1160.02 1083.51 1163.44 1081.14 1166.85C1080.35 1167.64 1079.56 1168.17 1078.78 1168.17ZM374.53 1168.17C373.741 1168.17 372.952 1167.91 372.426 1167.12C370.059 1163.7 367.693 1160.28 365.589 1156.86C364.8 1155.81 365.063 1154.23 366.378 1153.44C367.43 1152.65 369.008 1152.92 369.796 1154.23C371.9 1157.65 374.267 1161.07 376.634 1164.49C377.423 1165.54 377.16 1167.12 376.108 1167.91C375.582 1167.91 375.056 1168.17 374.53 1168.17ZM1092.19 1147.39C1091.66 1147.39 1091.4 1147.39 1090.87 1147.13C1089.82 1146.34 1089.29 1145.03 1090.08 1143.71C1092.19 1140.29 1094.29 1136.61 1096.39 1133.19C1097.18 1132.14 1098.5 1131.62 1099.81 1132.4C1100.87 1133.19 1101.39 1134.51 1100.6 1135.82C1098.5 1139.5 1096.39 1142.92 1094.29 1146.6C1093.76 1147.13 1092.98 1147.39 1092.19 1147.39ZM361.118 1147.39C360.33 1147.39 359.541 1146.87 359.015 1146.34C356.911 1142.92 354.807 1139.24 352.703 1135.56C351.914 1134.51 352.44 1132.93 353.492 1132.14C354.807 1131.35 356.122 1131.88 356.911 1132.93C359.015 1136.35 361.118 1140.03 363.222 1143.45C364.011 1144.5 363.485 1146.08 362.433 1146.87C362.17 1147.39 361.644 1147.39 361.118 1147.39ZM349.022 1126.09C348.233 1126.09 347.181 1125.57 346.918 1124.78C345.077 1121.1 342.973 1117.41 341.132 1113.73C340.607 1112.42 341.132 1111.1 342.184 1110.31C343.499 1109.79 344.814 1110.31 345.603 1111.37C347.444 1115.05 349.285 1118.73 351.125 1122.15C351.651 1123.46 351.388 1124.78 350.073 1125.57C349.81 1125.83 349.285 1126.09 349.022 1126.09ZM1104.55 1126.09C1104.28 1126.09 1103.76 1126.09 1103.49 1125.83C1102.18 1125.3 1101.92 1123.73 1102.44 1122.41C1104.28 1118.73 1106.39 1115.05 1107.97 1111.37C1108.49 1110.05 1110.07 1109.53 1111.38 1110.31C1112.7 1110.84 1113.22 1112.42 1112.44 1113.73C1110.59 1117.41 1108.75 1121.1 1106.65 1124.78C1106.12 1125.57 1105.34 1126.09 1104.55 1126.09ZM337.977 1104C336.925 1104 336.136 1103.48 335.61 1102.69C333.769 1099.01 332.191 1095.06 330.614 1091.38C330.088 1090.07 330.614 1088.75 331.928 1088.22C333.243 1087.7 334.558 1088.22 335.084 1089.54C336.662 1093.22 338.24 1096.9 340.081 1100.58C340.606 1101.9 340.081 1103.21 338.766 1103.74C338.766 1104 338.24 1104 337.977 1104ZM1115.59 1103.74C1115.33 1103.74 1114.8 1103.74 1114.54 1103.48C1113.22 1102.95 1112.7 1101.37 1113.22 1100.32C1114.8 1096.64 1116.64 1092.96 1118.22 1089.01C1118.75 1087.7 1120.33 1087.17 1121.38 1087.7C1122.69 1088.22 1123.22 1089.8 1122.69 1090.85C1121.11 1094.54 1119.27 1098.48 1117.7 1102.16C1117.43 1103.21 1116.38 1103.74 1115.59 1103.74ZM328.247 1081.39C327.195 1081.39 326.406 1080.86 325.88 1079.81C324.302 1075.86 322.987 1072.18 321.409 1068.24C320.883 1066.92 321.672 1065.61 322.987 1065.08C324.302 1064.56 325.617 1065.35 326.143 1066.66C327.458 1070.61 329.035 1074.29 330.35 1078.23C330.876 1079.55 330.35 1080.86 329.035 1081.39C329.035 1081.39 328.51 1081.39 328.247 1081.39ZM1125.32 1081.12C1125.06 1081.12 1124.8 1081.12 1124.53 1080.86C1123.22 1080.34 1122.69 1079.02 1123.22 1077.71C1124.8 1074.02 1126.11 1070.08 1127.69 1066.13C1128.21 1064.82 1129.53 1064.29 1130.84 1064.56C1132.16 1065.08 1132.68 1066.4 1132.42 1067.71C1131.11 1071.66 1129.53 1075.6 1127.95 1079.28C1127.16 1080.6 1126.11 1081.12 1125.32 1081.12ZM319.831 1058.25C318.779 1058.25 317.728 1057.46 317.465 1056.67C316.15 1052.72 314.835 1048.78 313.783 1044.83C313.52 1043.52 314.046 1042.2 315.361 1041.68C316.676 1041.42 317.991 1041.94 318.516 1043.26C319.568 1047.2 320.883 1051.15 322.198 1055.09C322.724 1056.4 321.935 1057.72 320.62 1058.25C320.357 1058.25 320.094 1058.25 319.831 1058.25ZM1133.74 1057.72C1133.47 1057.72 1133.21 1057.72 1132.95 1057.72C1131.63 1057.19 1130.84 1055.88 1131.37 1054.56C1132.68 1050.62 1133.74 1046.67 1135.05 1042.73C1135.31 1041.42 1136.89 1040.63 1138.21 1041.15C1139.52 1041.42 1140.31 1042.99 1139.79 1044.31C1138.73 1048.25 1137.42 1052.2 1136.1 1056.14C1135.58 1057.19 1134.79 1057.72 1133.74 1057.72ZM312.994 1034.58C311.942 1034.58 310.89 1033.79 310.627 1032.74C309.575 1028.79 308.523 1024.85 307.735 1020.64C307.472 1019.33 308.261 1018.01 309.576 1017.75C310.89 1017.48 312.205 1018.27 312.468 1019.59C313.52 1023.53 314.309 1027.48 315.361 1031.42C315.624 1032.74 314.835 1034.05 313.52 1034.31C313.257 1034.58 312.994 1034.58 312.994 1034.58ZM1140.57 1034.31C1140.31 1034.31 1140.05 1034.31 1140.05 1034.31C1138.73 1034.05 1137.94 1032.74 1138.21 1031.42C1139.26 1027.48 1140.31 1023.53 1141.1 1019.59C1141.36 1018.27 1142.68 1017.48 1143.99 1017.75C1145.31 1018.01 1146.1 1019.33 1145.83 1020.64C1144.78 1024.58 1143.99 1028.79 1142.94 1032.74C1142.68 1033.53 1141.63 1034.31 1140.57 1034.31ZM307.209 1010.65C306.157 1010.65 305.105 1009.86 304.842 1008.54C304.053 1004.6 303.264 1000.39 302.475 996.447C302.212 995.132 303.264 993.817 304.579 993.554C305.894 993.291 307.209 994.343 307.472 995.658C308.261 999.602 309.05 1003.81 309.838 1007.75C310.101 1009.07 309.312 1010.38 307.997 1010.65C307.472 1010.65 307.472 1010.65 307.209 1010.65ZM1146.36 1010.12C1146.1 1010.12 1146.1 1010.12 1145.83 1010.12C1144.52 1009.86 1143.73 1008.54 1143.99 1007.23C1144.78 1003.28 1145.57 999.076 1146.36 995.132C1146.62 993.817 1147.94 992.765 1149.25 993.028C1150.57 993.291 1151.62 994.606 1151.36 995.921C1150.57 999.865 1149.78 1004.07 1148.99 1008.02C1148.46 1009.33 1147.41 1010.12 1146.36 1010.12ZM303.001 986.191C301.686 986.191 300.634 985.402 300.634 984.087C300.108 980.142 299.583 975.935 299.057 971.727C298.794 970.412 299.845 969.097 301.16 969.097C302.475 968.834 303.79 969.886 303.79 971.201C304.316 975.146 304.842 979.353 305.368 983.298C305.631 984.613 304.579 985.928 303.264 986.191C303.264 986.191 303.264 986.191 303.001 986.191ZM1150.57 985.928L1150.3 985.928C1148.99 985.665 1147.94 984.613 1148.2 983.035C1148.73 979.09 1149.25 974.883 1149.78 970.938C1150.04 969.623 1151.09 968.571 1152.41 968.834C1153.72 969.097 1154.77 970.149 1154.51 971.464C1153.99 975.672 1153.46 979.616 1152.93 983.824C1152.67 984.876 1151.62 985.928 1150.57 985.928ZM300.108 961.734C298.793 961.734 297.742 960.682 297.742 959.367C297.479 955.16 297.216 951.215 296.953 947.007C296.953 945.693 298.005 944.378 299.32 944.378C300.634 944.378 301.949 945.43 301.949 946.745C302.212 950.689 302.475 954.897 302.738 959.104C302.738 960.419 301.686 961.471 300.108 961.734C300.371 961.734 300.371 961.734 300.108 961.734ZM1153.2 961.471C1151.62 961.471 1150.57 960.156 1150.83 958.841C1151.09 954.897 1151.36 950.689 1151.62 946.481C1151.62 945.167 1152.93 944.115 1154.25 944.115C1155.56 944.115 1156.62 945.43 1156.62 946.744C1156.35 950.952 1156.09 955.16 1155.83 959.104C1155.56 960.419 1154.51 961.471 1153.2 961.471ZM298.793 937.014C297.479 937.014 296.427 935.963 296.427 934.648C296.427 930.44 296.164 926.495 296.164 922.288C296.164 920.973 297.216 919.921 298.53 919.921C299.845 919.921 300.897 920.973 300.897 922.288C300.897 926.495 300.897 930.44 301.16 934.648C301.16 935.963 300.108 937.014 298.793 937.014ZM1154.77 936.751C1154.77 936.751 1154.51 936.751 1154.77 936.751C1153.46 936.751 1152.15 935.699 1152.41 934.122C1152.41 930.177 1152.67 925.97 1152.67 921.762L1152.67 920.973C1152.67 919.658 1153.72 918.606 1155.04 918.606C1156.35 918.606 1157.4 919.658 1157.4 920.973L1157.4 921.762C1157.4 925.97 1157.4 930.177 1157.14 934.122C1157.14 935.699 1156.09 936.751 1154.77 936.751ZM298.793 912.295C297.478 912.295 296.164 911.243 296.427 909.665C296.427 905.458 296.69 901.25 296.953 897.305C296.953 895.99 298.268 894.939 299.582 894.939C300.897 894.939 301.949 896.253 301.949 897.568C301.686 901.513 301.423 905.721 301.423 909.928C301.16 911.243 300.108 912.295 298.793 912.295ZM1154.77 911.243C1153.46 911.243 1152.41 910.191 1152.41 908.876C1152.41 904.669 1152.14 900.724 1151.88 896.516C1151.88 895.201 1152.93 893.887 1154.25 893.887C1155.56 893.887 1156.88 894.939 1156.88 896.253C1157.14 900.461 1157.4 904.406 1157.4 908.613C1157.14 910.191 1156.09 911.243 1154.77 911.243ZM300.108 887.838C298.53 887.838 297.479 886.523 297.742 885.209C298.005 881.001 298.531 877.056 299.057 872.849C299.32 871.534 300.371 870.482 301.686 870.745C303.001 871.008 304.053 872.06 303.79 873.375C303.264 877.319 303.001 881.527 302.475 885.471C302.475 886.786 301.423 887.838 300.108 887.838ZM1153.2 886.786C1151.88 886.786 1150.83 885.734 1150.83 884.42C1150.57 880.475 1150.04 876.267 1149.52 872.323C1149.25 871.008 1150.3 869.693 1151.62 869.693C1152.93 869.43 1154.25 870.482 1154.25 871.797C1154.77 876.004 1155.04 879.949 1155.56 884.156C1155.83 885.471 1154.77 886.523 1153.2 886.786C1153.2 886.786 1153.46 886.786 1153.2 886.786ZM303.001 863.382L302.738 863.382C301.423 863.119 300.371 862.067 300.634 860.489C301.16 856.544 301.949 852.337 302.475 848.129C302.738 846.814 304.053 845.762 305.368 846.025C306.683 846.288 307.735 847.603 307.472 848.918C306.683 852.863 306.157 857.07 305.631 861.015C305.105 862.33 304.053 863.382 303.001 863.382ZM1150.3 862.067C1148.99 862.067 1147.94 861.278 1147.94 859.963C1147.41 856.018 1146.62 851.811 1146.1 847.866C1145.83 846.551 1146.89 845.236 1148.2 844.973C1149.52 844.71 1150.83 845.762 1151.09 847.077C1151.88 851.022 1152.41 855.229 1152.93 859.437C1153.2 860.752 1152.14 862.067 1150.83 862.33C1150.57 862.067 1150.57 862.067 1150.3 862.067ZM307.209 838.925C306.946 838.925 306.946 838.925 306.683 838.925C305.368 838.662 304.579 837.347 304.842 836.032C305.631 832.088 306.42 827.88 307.472 823.936C307.735 822.621 309.049 821.832 310.364 822.095C311.679 822.358 312.468 823.672 312.205 824.987C311.153 828.932 310.364 832.877 309.576 837.084C309.313 838.136 308.261 838.925 307.209 838.925ZM1146.1 837.873C1145.04 837.873 1143.99 837.084 1143.73 836.032C1142.94 832.088 1142.15 828.143 1141.1 823.935C1140.84 822.621 1141.63 821.306 1142.94 821.043C1144.26 820.78 1145.57 821.569 1145.83 822.884C1146.89 826.828 1147.67 831.036 1148.46 834.98C1148.73 836.295 1147.94 837.61 1146.62 837.873C1146.36 837.873 1146.36 837.873 1146.1 837.873ZM312.731 814.994C312.468 814.994 312.205 814.994 312.205 814.994C310.89 814.731 310.101 813.417 310.364 812.102C311.416 808.157 312.468 804.212 313.783 800.268C314.046 798.953 315.624 798.164 316.939 798.69C318.254 798.953 319.042 800.531 318.516 801.846C317.465 805.79 316.15 809.735 315.098 813.679C314.835 814.205 313.783 814.994 312.731 814.994ZM1140.31 813.942C1139.26 813.942 1138.21 813.154 1137.94 812.102C1136.89 808.157 1135.84 804.212 1134.53 800.268C1134.26 798.953 1134.79 797.638 1136.1 797.112C1137.42 796.849 1138.73 797.375 1139.26 798.69C1140.31 802.634 1141.63 806.579 1142.68 810.524C1142.94 811.839 1142.15 813.154 1140.84 813.417C1140.84 813.942 1140.57 813.942 1140.31 813.942ZM319.568 791.327C319.305 791.327 319.043 791.327 318.78 791.327C317.465 790.801 316.676 789.486 317.202 788.171C318.516 784.226 319.831 780.282 321.146 776.337C321.672 775.022 322.987 774.496 324.302 774.759C325.617 775.285 326.143 776.6 325.88 777.915C324.565 781.86 323.25 785.541 321.935 789.486C321.672 790.538 320.62 791.327 319.568 791.327ZM1133.47 790.275C1132.42 790.275 1131.37 789.749 1131.11 788.697C1129.79 784.752 1128.48 780.808 1127.16 777.126C1126.64 775.811 1127.43 774.496 1128.74 773.97C1130.06 773.444 1131.37 774.233 1131.9 775.548C1133.21 779.493 1134.79 783.437 1135.84 787.382C1136.37 788.697 1135.58 790.012 1134.26 790.538C1134 790.275 1133.74 790.275 1133.47 790.275ZM327.984 767.922C327.721 767.922 327.458 767.922 327.195 767.659C325.88 767.133 325.354 765.818 325.88 764.503C327.458 760.559 329.036 756.877 330.613 752.932C331.139 751.617 332.717 751.092 333.769 751.617C335.084 752.143 335.61 753.721 335.084 754.773C333.506 758.455 331.928 762.399 330.35 766.081C330.087 767.396 329.036 767.922 327.984 767.922ZM1125.06 767.133C1124.01 767.133 1123.22 766.607 1122.69 765.555C1121.11 761.874 1119.54 757.929 1117.96 754.247C1117.43 752.932 1117.96 751.618 1119.27 751.092C1120.59 750.566 1121.9 751.092 1122.43 752.406C1124.01 756.088 1125.58 760.033 1127.16 763.714C1127.69 765.029 1127.16 766.344 1125.85 766.87C1125.58 766.87 1125.32 767.133 1125.06 767.133ZM337.714 745.306C337.451 745.306 336.925 745.306 336.662 745.043C335.347 744.517 334.821 742.939 335.347 741.888C337.188 738.206 338.766 734.261 340.606 730.58C341.132 729.265 342.71 728.739 344.025 729.528C345.34 730.054 345.866 731.632 345.077 732.946C343.236 736.628 341.395 740.31 339.818 743.991C339.555 744.78 338.766 745.306 337.714 745.306ZM1115.33 744.517C1114.28 744.517 1113.49 743.991 1112.96 743.202C1111.12 739.521 1109.54 735.839 1107.7 732.158C1107.18 730.843 1107.7 729.528 1108.75 728.739C1110.07 728.213 1111.38 728.739 1112.17 729.791C1114.01 733.472 1115.85 737.154 1117.43 740.836C1117.96 742.15 1117.43 743.465 1116.12 743.991C1116.12 744.254 1115.59 744.517 1115.33 744.517ZM348.758 723.216C348.495 723.216 347.97 723.217 347.707 722.954C346.392 722.428 346.129 720.85 346.655 719.535C348.496 715.853 350.599 712.172 352.703 708.753C353.492 707.438 354.807 707.175 356.122 707.964C357.174 708.753 357.7 710.068 356.911 711.383C354.807 715.064 352.966 718.483 350.862 722.164C350.599 722.69 349.547 723.216 348.758 723.216ZM1104.28 722.427C1103.49 722.427 1102.44 721.901 1102.18 721.112C1100.34 717.431 1098.24 714.012 1096.13 710.331C1095.34 709.279 1095.87 707.701 1096.92 706.912C1097.97 706.123 1099.55 706.649 1100.34 707.701C1102.44 711.382 1104.28 714.801 1106.39 718.483C1106.91 719.798 1106.65 721.113 1105.34 721.902C1105.07 722.427 1104.81 722.427 1104.28 722.427ZM361.118 701.652C360.592 701.652 360.33 701.652 359.804 701.389C358.752 700.601 358.226 699.286 359.015 697.971C361.118 694.552 363.485 690.871 365.589 687.452C366.378 686.4 367.956 685.874 369.008 686.663C370.06 687.452 370.585 689.03 369.796 690.082C367.693 693.5 365.326 696.919 363.222 700.601C362.696 701.127 361.907 701.652 361.118 701.652ZM1091.92 701.126C1091.13 701.126 1090.35 700.6 1089.82 700.075C1087.72 696.656 1085.61 693.237 1083.25 689.818C1082.46 688.767 1082.72 687.189 1084.03 686.4C1085.09 685.611 1086.66 685.874 1087.45 687.189C1089.82 690.607 1091.92 694.026 1094.03 697.708C1094.82 698.76 1094.29 700.338 1093.24 701.126C1092.98 700.864 1092.45 701.126 1091.92 701.126ZM374.53 680.878C374.004 680.878 373.478 680.614 373.215 680.352C372.163 679.563 371.9 677.985 372.689 676.933C375.056 673.514 377.423 670.096 379.79 666.94C380.578 665.888 382.156 665.625 383.208 666.414C384.26 667.203 384.523 668.781 383.734 669.833C381.367 673.251 379.001 676.407 376.634 679.826C376.108 680.615 375.319 680.878 374.53 680.878ZM1078.51 680.351C1077.72 680.351 1076.93 680.088 1076.41 679.299C1074.04 675.881 1071.67 672.462 1069.31 669.307C1068.52 668.255 1068.78 666.677 1069.83 665.888C1070.89 665.099 1072.46 665.362 1073.25 666.414C1075.62 669.833 1077.99 672.988 1080.35 676.407C1081.14 677.459 1080.88 679.037 1079.83 679.826C1079.56 680.352 1079.04 680.351 1078.51 680.351ZM389.257 661.155C388.731 661.155 388.205 660.891 387.679 660.628C386.627 659.84 386.364 658.262 387.153 657.21C389.783 654.054 392.412 650.635 395.042 647.48C395.831 646.428 397.409 646.165 398.461 647.217C399.513 648.006 399.775 649.584 398.724 650.636C396.094 653.791 393.464 656.947 391.098 660.103C390.572 660.629 389.782 661.155 389.257 661.155ZM1064.05 660.628C1063.26 660.628 1062.47 660.365 1062.21 659.576C1059.58 656.421 1057.21 653.265 1054.58 650.109C1053.79 649.058 1053.79 647.48 1054.84 646.691C1055.9 645.902 1057.47 645.902 1058.26 646.954C1060.89 650.11 1063.52 653.265 1066.15 656.684C1066.94 657.736 1066.68 659.314 1065.63 660.103C1065.1 660.366 1064.57 660.628 1064.05 660.628ZM404.772 641.957C404.246 641.957 403.72 641.694 403.194 641.432C402.142 640.643 402.142 639.065 402.931 638.013C405.561 634.857 408.454 631.964 411.346 628.809C412.398 627.757 413.713 627.757 414.765 628.809C415.817 629.861 415.817 631.176 414.765 632.227C411.873 635.12 409.243 638.276 406.613 641.432C406.35 641.694 405.561 641.957 404.772 641.957ZM1048.27 641.694C1047.48 641.694 1046.96 641.431 1046.43 640.905C1043.8 637.75 1040.91 634.857 1038.28 631.701C1037.23 630.649 1037.49 629.072 1038.28 628.283C1039.33 627.231 1040.91 627.494 1041.7 628.283C1044.59 631.175 1047.22 634.331 1050.11 637.487C1050.9 638.539 1050.9 640.116 1049.85 640.905C1049.32 641.431 1048.8 641.694 1048.27 641.694ZM421.603 624.075C421.077 624.075 420.287 623.812 419.761 623.286C418.71 622.234 418.71 620.656 419.761 619.867C422.654 616.975 425.547 614.082 428.703 611.189C429.755 610.138 431.333 610.401 432.121 611.189C433.173 612.241 432.91 613.819 432.121 614.608C429.229 617.501 426.336 620.394 423.443 623.286C422.917 623.812 422.391 624.075 421.603 624.075ZM1031.44 623.549C1030.91 623.549 1030.12 623.286 1029.6 622.76C1026.71 619.867 1023.81 616.975 1020.92 614.082C1019.87 613.03 1019.87 611.452 1020.92 610.663C1021.97 609.611 1023.55 609.611 1024.34 610.663C1027.23 613.556 1030.39 616.449 1033.28 619.342C1034.33 620.393 1034.33 621.971 1033.28 622.76C1032.49 623.286 1031.97 623.549 1031.44 623.549ZM439.485 606.982C438.696 606.982 438.17 606.719 437.644 606.193C436.855 605.141 436.855 603.563 437.907 602.774C441.062 600.144 443.955 597.252 447.111 594.622C448.163 593.833 449.741 593.833 450.53 594.885C451.319 595.937 451.319 597.515 450.267 598.304C447.111 600.933 443.955 603.563 441.063 606.456C440.8 606.719 440.011 606.982 439.485 606.982ZM1013.56 606.456C1013.03 606.456 1012.51 606.193 1011.98 605.93C1008.82 603.3 1005.93 600.407 1002.78 597.777C1001.72 596.989 1001.72 595.411 1002.51 594.359C1003.3 593.307 1004.88 593.307 1005.93 594.096C1009.09 596.726 1012.24 599.619 1015.14 602.248C1016.19 603.037 1016.19 604.615 1015.4 605.667C1014.87 606.193 1014.08 606.456 1013.56 606.456ZM458.156 590.94C457.367 590.94 456.841 590.677 456.315 590.152C455.526 589.1 455.526 587.522 456.578 586.733C459.734 584.103 463.152 581.473 466.308 579.106C467.36 578.318 468.938 578.581 469.727 579.633C470.516 580.684 470.253 582.262 469.201 583.051C466.045 585.418 462.627 588.048 459.471 590.677C459.208 590.677 458.682 590.94 458.156 590.94ZM994.623 590.414C994.097 590.414 993.571 590.151 993.045 589.888C989.89 587.259 986.734 584.892 983.315 582.262C982.264 581.473 982.001 579.895 982.79 578.843C983.579 577.792 985.156 577.529 986.208 578.318C989.364 580.684 992.783 583.314 995.938 585.944C996.99 586.733 997.253 588.311 996.201 589.362C996.201 590.151 995.412 590.414 994.623 590.414ZM477.879 575.951C477.09 575.951 476.301 575.688 475.775 574.899C474.986 573.847 475.249 572.269 476.301 571.48C479.72 569.113 483.138 566.747 486.557 564.38C487.609 563.591 489.187 563.854 489.976 565.169C490.765 566.221 490.502 567.799 489.187 568.587C485.768 570.954 482.35 573.321 479.194 575.688C478.931 575.951 478.405 575.951 477.879 575.951ZM975.163 575.688C974.637 575.688 974.111 575.425 973.848 575.162C970.43 572.795 967.011 570.428 963.855 568.062C962.803 567.273 962.541 565.695 963.067 564.643C963.855 563.591 965.433 563.328 966.485 563.854C969.904 566.221 973.322 568.587 976.741 570.954C977.793 571.743 978.056 573.321 977.267 574.373C976.478 575.162 975.952 575.688 975.163 575.688ZM498.391 562.276C497.602 562.276 496.813 561.75 496.287 561.224C495.498 560.172 496.024 558.595 497.076 557.806C500.495 555.702 504.176 553.335 507.595 551.231C508.647 550.442 510.225 550.968 511.014 552.02C511.803 553.072 511.277 554.65 510.225 555.439C506.806 557.543 503.124 559.646 499.706 561.75C499.18 562.013 498.654 562.276 498.391 562.276ZM954.651 561.75C954.125 561.75 953.862 561.75 953.336 561.487C949.918 559.383 946.236 557.28 942.817 555.176C941.765 554.387 941.24 553.072 942.029 551.757C942.818 550.705 944.132 550.179 945.447 550.968C949.129 553.072 952.547 555.176 955.966 557.543C957.018 558.332 957.544 559.909 956.755 560.961C956.229 561.487 955.44 561.75 954.651 561.75ZM519.429 549.653C518.64 549.653 517.588 549.127 517.325 548.339C516.536 547.024 517.062 545.709 518.377 544.92C522.058 542.816 525.74 540.975 529.159 539.134C530.474 538.609 531.789 538.872 532.577 540.186C533.103 541.501 532.84 542.816 531.526 543.605C527.844 545.446 524.162 547.55 520.744 549.391C520.218 549.654 519.955 549.653 519.429 549.653ZM933.35 549.39C932.824 549.39 932.561 549.39 932.035 549.127C928.354 547.023 924.935 545.183 921.254 543.342C919.939 542.816 919.676 541.238 920.202 539.923C920.728 538.608 922.306 538.346 923.62 538.872C927.302 540.712 930.984 542.816 934.665 544.657C935.98 545.446 936.243 546.761 935.717 548.076C934.928 548.865 934.139 549.39 933.35 549.39ZM541.256 538.345C540.467 538.345 539.415 537.819 539.152 537.031C538.626 535.716 539.152 534.401 540.204 533.612C543.885 531.771 547.567 530.193 551.512 528.353C552.827 527.827 554.141 528.353 554.667 529.667C555.193 530.982 554.667 532.297 553.353 532.823C549.671 534.401 545.989 536.242 542.308 538.083C542.045 538.345 541.782 538.345 541.256 538.345ZM911.26 538.082C910.997 538.082 910.471 538.083 910.208 537.82C906.527 535.979 902.845 534.401 899.164 532.56C897.849 532.034 897.323 530.456 897.849 529.404C898.375 528.089 899.952 527.563 901.004 528.089C904.686 529.667 908.631 531.508 912.312 533.349C913.627 533.875 914.153 535.453 913.364 536.768C913.101 537.557 912.312 538.082 911.26 538.082ZM563.871 528.353C562.82 528.353 562.031 527.826 561.505 526.774C560.979 525.46 561.505 524.145 562.82 523.619C566.501 522.041 570.446 520.463 574.39 519.148C575.705 518.623 577.02 519.411 577.546 520.463C578.072 521.778 577.283 523.093 576.231 523.619C572.55 524.934 568.605 526.512 564.923 528.089C564.398 528.352 564.134 528.353 563.871 528.353ZM888.645 527.826C888.382 527.826 888.119 527.826 887.593 527.564C883.911 525.986 879.966 524.408 876.022 523.093C874.707 522.567 874.181 521.252 874.707 519.937C875.233 518.622 876.548 518.096 877.863 518.622C881.807 520.2 885.752 521.515 889.434 523.093C890.749 523.619 891.275 524.934 890.749 526.249C890.486 527.301 889.697 527.826 888.645 527.826ZM587.013 519.674C585.961 519.674 584.909 519.148 584.647 518.097C584.121 516.782 584.909 515.467 586.224 514.941C590.169 513.626 594.114 512.311 598.058 510.996C599.373 510.47 600.688 511.259 601.214 512.574C601.74 513.889 600.951 515.204 599.636 515.73C595.691 517.045 591.747 518.359 588.065 519.674C587.539 519.674 587.276 519.674 587.013 519.674ZM865.503 519.148C865.24 519.148 864.977 519.148 864.714 518.885C860.769 517.57 856.825 516.255 853.143 514.941C851.828 514.415 851.039 513.1 851.565 511.785C852.091 510.47 853.406 509.681 854.721 510.207C858.666 511.522 862.61 512.837 866.555 514.152C867.87 514.678 868.659 515.993 868.133 517.307C867.607 518.622 866.555 519.148 865.503 519.148ZM610.418 512.311C609.366 512.311 608.314 511.522 608.051 510.47C607.788 509.155 608.314 507.841 609.629 507.315C613.574 506.263 617.518 505.211 621.726 504.159C623.041 503.896 624.356 504.685 624.618 506C624.881 507.315 624.093 508.629 622.778 508.892C618.833 509.944 614.889 510.996 610.944 512.048C610.944 512.311 610.681 512.311 610.418 512.311ZM841.835 512.048C841.572 512.048 841.309 512.048 841.046 512.048C837.102 510.996 833.157 509.944 829.213 508.892C827.898 508.629 827.109 507.315 827.372 506C827.635 504.685 828.95 503.896 830.265 504.159C834.209 505.211 838.417 506.263 842.361 507.315C843.676 507.578 844.465 509.155 844.202 510.47C843.939 511.259 842.887 512.048 841.835 512.048ZM634.349 506.263C633.297 506.263 632.245 505.474 631.982 504.422C631.719 503.107 632.508 501.792 633.823 501.529C637.767 500.74 641.975 499.688 645.919 499.162C647.234 498.899 648.549 499.688 648.812 501.003C649.075 502.318 648.286 503.633 646.971 503.896C643.027 504.685 638.819 505.474 634.875 506.263C634.612 506.263 634.612 506.263 634.349 506.263ZM817.905 506C817.642 506 817.642 506 817.379 506C813.434 505.211 809.49 504.422 805.282 503.633C803.967 503.37 803.178 502.055 803.441 500.74C803.704 499.425 805.019 498.636 806.334 498.899C810.278 499.688 814.486 500.477 818.431 501.266C819.746 501.529 820.534 502.844 820.271 504.159C820.008 505.211 819.219 506 817.905 506ZM658.542 501.529C657.227 501.529 656.175 500.74 656.175 499.425C655.912 498.111 656.964 496.795 658.279 496.532C662.224 496.006 666.431 495.218 670.639 494.692C671.954 494.429 673.269 495.481 673.532 496.796C673.795 498.111 672.743 499.425 671.428 499.688C667.483 500.214 663.276 500.74 659.331 501.529C658.805 501.529 658.805 501.529 658.542 501.529ZM793.711 501.529L793.448 501.529C789.504 501.003 785.296 500.214 781.351 499.688C780.036 499.425 778.984 498.373 779.247 497.059C779.51 495.744 780.562 494.692 781.877 494.955C786.085 495.481 790.029 496.007 794.237 496.796C795.552 497.059 796.604 498.373 796.341 499.688C796.078 500.477 795.026 501.529 793.711 501.529ZM682.999 498.373C681.684 498.373 680.632 497.321 680.632 496.27C680.369 494.955 681.421 493.64 682.736 493.64C686.943 493.114 690.888 492.851 695.096 492.588C696.411 492.588 697.725 493.64 697.725 494.955C697.725 496.27 696.673 497.584 695.359 497.584C691.414 497.584 687.47 498.11 682.999 498.373C683.262 498.373 683.262 498.373 682.999 498.373ZM769.254 498.373C769.254 498.373 768.991 498.373 769.254 498.373C765.047 497.847 760.839 497.584 756.895 497.321C755.58 497.321 754.528 496.007 754.528 494.692C754.528 493.377 755.843 492.325 757.158 492.325C761.365 492.588 765.31 492.851 769.517 493.377C770.832 493.64 771.884 494.692 771.621 496.007C771.621 497.321 770.569 498.373 769.254 498.373ZM707.718 496.796C706.403 496.796 705.352 495.744 705.352 494.429C705.352 493.114 706.403 491.799 707.718 491.799C711.926 491.536 715.871 491.536 720.078 491.536C721.393 491.536 722.445 492.588 722.708 493.903C722.708 495.218 721.656 496.269 720.341 496.532C715.871 496.269 711.926 496.533 707.718 496.796ZM744.535 496.532C740.327 496.269 736.12 496.27 732.175 496.27C730.86 496.27 729.808 495.218 729.808 493.64C729.808 492.325 730.86 491.273 732.438 491.273C736.646 491.273 740.853 491.536 744.798 491.536C746.113 491.536 747.164 492.851 747.164 494.166C747.164 495.481 745.85 496.532 744.535 496.532Z" fill="#0F0F0F"/>
<path d="M720.868 2905.12C716.661 2905.12 712.453 2904.85 708.509 2904.85C707.194 2904.85 706.142 2903.54 706.142 2902.22C706.142 2900.91 707.194 2899.86 708.771 2899.86C712.979 2900.12 716.924 2900.12 721.131 2900.12C722.446 2900.12 723.498 2901.17 723.498 2902.49C723.235 2904.06 722.183 2905.12 720.868 2905.12ZM733.228 2905.12C731.913 2905.12 730.861 2904.06 730.861 2902.75C730.861 2901.43 731.913 2900.38 733.228 2900.12C737.436 2900.12 741.38 2899.86 745.588 2899.86C746.903 2899.86 748.218 2900.91 748.218 2902.22C748.218 2903.54 747.166 2904.85 745.851 2904.85C741.38 2904.85 737.436 2904.85 733.228 2905.12ZM696.149 2904.06C695.886 2904.06 695.886 2904.06 696.149 2904.06C691.941 2903.8 687.734 2903.54 683.526 2903.01C682.211 2903.01 681.159 2901.7 681.422 2900.38C681.422 2899.07 682.737 2898.01 684.052 2898.28C687.996 2898.54 692.204 2899.07 696.412 2899.33C697.727 2899.33 698.779 2900.64 698.779 2901.96C698.516 2903.01 697.464 2904.06 696.149 2904.06ZM757.685 2904.06C756.37 2904.06 755.318 2903.01 755.318 2901.7C755.318 2900.38 756.37 2899.07 757.685 2899.07C761.892 2898.8 765.837 2898.54 770.045 2898.01C771.359 2898.01 772.674 2898.8 772.674 2900.12C772.674 2901.43 771.885 2902.75 770.57 2902.75C766.363 2903.54 762.155 2903.8 757.685 2904.06C757.948 2904.06 757.948 2904.06 757.685 2904.06ZM671.429 2901.96L671.166 2901.96C666.959 2901.43 663.014 2900.91 658.806 2900.38C657.492 2900.12 656.44 2899.07 656.703 2897.49C656.966 2896.17 658.018 2895.12 659.595 2895.39C663.54 2895.91 667.748 2896.44 671.692 2896.96C673.007 2897.23 674.059 2898.28 673.796 2899.59C673.796 2900.91 672.744 2901.96 671.429 2901.96ZM782.404 2901.7C781.089 2901.7 780.037 2900.64 780.037 2899.59C779.774 2898.28 780.826 2896.96 782.141 2896.96C786.349 2896.44 790.294 2895.91 794.238 2895.39C795.553 2895.12 796.868 2896.17 797.131 2897.49C797.394 2898.8 796.342 2900.12 795.027 2900.38C790.82 2900.91 786.875 2901.43 782.667 2901.96C782.667 2901.7 782.404 2901.7 782.404 2901.7ZM646.973 2898.28C646.71 2898.28 646.71 2898.28 646.447 2898.28C642.239 2897.49 638.295 2896.7 634.35 2895.91C633.035 2895.65 632.246 2894.33 632.509 2893.02C632.772 2891.7 634.087 2890.91 635.402 2891.18C639.346 2891.97 643.554 2892.76 647.499 2893.54C648.814 2893.81 649.865 2895.12 649.602 2896.44C649.076 2897.49 648.024 2898.28 646.973 2898.28ZM806.861 2898.28C805.809 2898.28 804.757 2897.49 804.494 2896.17C804.231 2894.86 805.283 2893.54 806.598 2893.28C810.543 2892.49 814.75 2891.7 818.695 2890.91C820.01 2890.65 821.325 2891.44 821.587 2892.76C821.85 2894.07 821.062 2895.39 819.747 2895.65C815.802 2896.44 811.594 2897.23 807.65 2898.01C807.124 2898.28 807.124 2898.28 806.861 2898.28ZM622.779 2893.54C622.516 2893.54 622.516 2893.54 622.253 2893.54C618.308 2892.76 614.101 2891.7 610.156 2890.65C608.841 2890.39 608.052 2889.07 608.315 2887.76C608.578 2886.44 609.893 2885.66 611.208 2885.92C615.153 2886.97 619.097 2887.76 623.042 2888.81C624.357 2889.07 625.146 2890.39 624.883 2891.7C624.883 2892.76 623.831 2893.54 622.779 2893.54ZM831.055 2893.28C830.003 2893.28 828.951 2892.49 828.688 2891.44C828.425 2890.13 829.214 2888.81 830.529 2888.55C834.473 2887.76 838.418 2886.71 842.363 2885.66C843.677 2885.39 844.992 2886.18 845.255 2887.5C845.518 2888.81 844.729 2890.13 843.414 2890.39C839.47 2891.44 835.262 2892.49 831.317 2893.28C831.58 2893.28 831.317 2893.28 831.055 2893.28ZM598.848 2887.5C598.585 2887.5 598.322 2887.5 598.059 2887.5C594.115 2886.44 590.17 2885.13 586.226 2884.08C584.911 2883.55 584.122 2882.24 584.648 2880.92C585.174 2879.61 586.488 2878.82 587.803 2879.34C591.748 2880.66 595.693 2881.71 599.637 2882.76C600.952 2883.03 601.741 2884.6 601.215 2885.92C600.689 2886.71 599.9 2887.5 598.848 2887.5ZM854.985 2887.23C853.933 2887.23 852.882 2886.44 852.619 2885.39C852.356 2884.08 852.881 2882.76 854.196 2882.24C858.141 2881.18 862.086 2879.87 866.03 2878.82C867.345 2878.29 868.66 2879.08 869.186 2880.4C869.712 2881.71 868.923 2883.03 867.608 2883.55C863.663 2884.87 859.719 2885.92 855.774 2887.23C855.511 2887.23 855.248 2887.23 854.985 2887.23ZM575.181 2879.87C574.918 2879.87 574.655 2879.87 574.392 2879.61C570.447 2878.29 566.503 2876.98 562.558 2875.4C561.243 2874.87 560.717 2873.56 560.98 2872.24C561.506 2870.93 562.821 2870.4 564.136 2870.67C568.08 2871.98 571.762 2873.56 575.707 2874.87C577.021 2875.4 577.81 2876.71 577.284 2878.03C577.021 2879.34 576.233 2879.87 575.181 2879.87ZM878.653 2879.87C877.601 2879.87 876.549 2879.34 876.286 2878.29C875.76 2876.98 876.549 2875.66 877.864 2875.14C881.809 2873.82 885.49 2872.51 889.435 2870.93C890.75 2870.4 892.065 2871.19 892.591 2872.51C893.116 2873.82 892.328 2875.14 891.013 2875.66C887.068 2877.24 883.124 2878.55 879.179 2879.87C879.179 2879.87 878.916 2879.87 878.653 2879.87ZM551.776 2871.45C551.513 2871.45 551.25 2871.45 550.724 2871.19C546.779 2869.61 543.098 2868.04 539.153 2866.46C537.838 2865.93 537.312 2864.35 537.838 2863.3C538.364 2861.99 539.942 2861.46 540.994 2861.99C544.676 2863.57 548.62 2865.14 552.302 2866.72C553.617 2867.25 554.143 2868.56 553.617 2869.88C553.88 2870.67 552.828 2871.45 551.776 2871.45ZM901.795 2871.19C900.743 2871.19 899.954 2870.67 899.428 2869.61C898.902 2868.3 899.428 2866.98 900.743 2866.46C904.424 2864.88 908.369 2863.3 912.051 2861.72C913.366 2861.2 914.68 2861.72 915.206 2863.04C915.732 2864.35 915.206 2865.67 913.891 2866.2C910.21 2867.77 906.265 2869.35 902.584 2870.93C902.584 2871.19 902.058 2871.19 901.795 2871.19ZM529.16 2861.46C528.897 2861.46 528.371 2861.46 528.108 2861.2C524.427 2859.36 520.482 2857.52 516.8 2855.68C515.485 2855.15 514.959 2853.57 515.748 2852.26C516.274 2850.94 517.852 2850.42 519.167 2851.21C522.849 2853.05 526.53 2854.89 530.212 2856.47C531.527 2856.99 532.053 2858.57 531.527 2859.62C531.001 2860.94 529.949 2861.46 529.16 2861.46ZM924.41 2861.46C923.358 2861.46 922.569 2860.94 922.044 2860.15C921.518 2858.83 922.044 2857.52 923.358 2856.99C927.04 2855.15 930.722 2853.57 934.403 2851.73C935.718 2851.21 937.033 2851.73 937.822 2852.78C938.348 2854.1 937.822 2855.41 936.77 2856.2C933.089 2858.04 929.407 2859.88 925.725 2861.46C925.199 2861.2 924.936 2861.46 924.41 2861.46ZM507.07 2850.42C506.807 2850.42 506.281 2850.42 506.018 2850.15C502.337 2848.31 498.655 2846.21 495.237 2844.11C493.922 2843.32 493.659 2842 494.185 2840.69C494.974 2839.37 496.289 2839.11 497.603 2839.63C501.285 2841.74 504.704 2843.58 508.385 2845.68C509.7 2846.21 509.963 2847.79 509.437 2849.1C508.648 2849.89 507.859 2850.42 507.07 2850.42ZM946.5 2850.42C945.711 2850.42 944.659 2849.89 944.396 2849.1C943.87 2847.79 944.133 2846.47 945.448 2845.68C949.13 2843.84 952.549 2841.74 956.23 2839.9C957.545 2839.11 958.86 2839.63 959.649 2840.95C960.438 2842.26 959.912 2843.58 958.597 2844.37C954.915 2846.47 951.234 2848.31 947.815 2850.42C947.289 2850.42 947.026 2850.42 946.5 2850.42ZM968.064 2838.32C967.275 2838.32 966.486 2837.79 965.96 2837C965.171 2835.95 965.697 2834.38 966.749 2833.59C970.168 2831.48 973.849 2829.38 977.268 2827.01C978.32 2826.22 979.898 2826.49 980.687 2827.8C981.476 2828.85 981.213 2830.43 979.898 2831.22C976.479 2833.32 972.798 2835.69 969.379 2837.79C968.853 2838.06 968.327 2838.32 968.064 2838.32ZM485.506 2838.32C484.98 2838.32 484.717 2838.32 484.191 2838.06C480.51 2835.95 477.091 2833.85 473.672 2831.48C472.621 2830.69 472.095 2829.12 472.884 2828.06C473.673 2827.01 475.25 2826.49 476.302 2827.27C479.721 2829.38 483.14 2831.75 486.821 2833.85C487.873 2834.64 488.399 2835.95 487.61 2837.27C487.084 2837.79 486.295 2838.32 485.506 2838.32ZM988.839 2824.91C988.05 2824.91 987.261 2824.65 986.735 2823.86C985.947 2822.8 986.209 2821.23 987.524 2820.44C990.943 2818.07 994.362 2815.7 997.517 2813.34C998.569 2812.55 1000.15 2812.81 1000.94 2813.86C1001.72 2814.92 1001.46 2816.49 1000.41 2817.28C996.991 2819.65 993.573 2822.02 990.154 2824.38C989.628 2824.91 989.365 2824.91 988.839 2824.91ZM464.468 2824.91C463.942 2824.91 463.416 2824.65 463.154 2824.38C459.735 2822.02 456.316 2819.65 452.898 2817.28C451.846 2816.49 451.583 2814.92 452.372 2813.86C453.161 2812.81 454.739 2812.55 455.79 2813.34C459.209 2815.7 462.365 2818.07 465.783 2820.44C466.835 2821.23 467.098 2822.8 466.572 2823.86C466.046 2824.38 465.257 2824.91 464.468 2824.91ZM1008.83 2810.44C1008.04 2810.44 1007.25 2810.18 1006.98 2809.39C1006.2 2808.34 1006.46 2806.76 1007.51 2805.97C1010.67 2803.61 1014.08 2800.98 1017.24 2798.35C1018.29 2797.56 1019.87 2797.56 1020.66 2798.61C1021.45 2799.66 1021.45 2801.24 1020.4 2802.03C1017.24 2804.66 1013.82 2807.03 1010.67 2809.66C1009.88 2810.44 1009.35 2810.44 1008.83 2810.44ZM444.482 2810.44C443.956 2810.44 443.431 2810.18 442.905 2809.92C439.486 2807.29 436.33 2804.92 433.175 2802.29C432.123 2801.5 431.86 2799.93 432.911 2798.87C433.7 2797.82 435.278 2797.56 436.33 2798.61C439.486 2801.24 442.904 2803.61 446.06 2806.24C447.112 2807.03 447.375 2808.6 446.586 2809.66C445.797 2810.18 445.271 2810.44 444.482 2810.44ZM1028.29 2795.19C1027.5 2795.19 1026.97 2794.93 1026.44 2794.4C1025.66 2793.35 1025.66 2791.77 1026.71 2790.98C1029.86 2788.35 1033.02 2785.72 1035.91 2782.83C1036.96 2782.04 1038.54 2782.04 1039.33 2783.1C1040.12 2784.15 1040.12 2785.72 1039.07 2786.51C1035.91 2789.14 1032.76 2792.04 1029.6 2794.67C1029.34 2794.93 1028.81 2795.19 1028.29 2795.19ZM425.022 2794.93C424.496 2794.93 423.97 2794.67 423.444 2794.4C420.289 2791.77 417.133 2789.14 413.977 2786.25C412.926 2785.46 412.926 2783.88 413.715 2782.83C414.503 2781.78 416.081 2781.78 417.133 2782.57C420.289 2785.2 423.181 2788.09 426.337 2790.72C427.389 2791.51 427.389 2793.09 426.6 2794.14C426.6 2794.67 425.811 2794.93 425.022 2794.93ZM1046.69 2778.89C1045.9 2778.89 1045.38 2778.62 1044.85 2778.1C1043.8 2777.05 1044.06 2775.47 1044.85 2774.68C1047.75 2771.79 1050.9 2769.16 1053.79 2766.26C1054.85 2765.21 1056.42 2765.21 1057.21 2766.26C1058.26 2767.32 1058.26 2768.89 1057.21 2769.68C1054.32 2772.58 1051.16 2775.47 1048.27 2778.36C1048.01 2778.62 1047.22 2778.89 1046.69 2778.89ZM406.614 2778.62C406.088 2778.62 405.299 2778.36 405.036 2777.84C402.144 2774.94 398.988 2772.05 396.095 2769.16C395.043 2768.11 395.043 2766.53 396.095 2765.74C397.147 2764.69 398.725 2764.69 399.514 2765.74C402.407 2768.63 405.299 2771.52 408.455 2774.15C409.507 2775.21 409.507 2776.52 408.455 2777.57C407.929 2778.36 407.14 2778.62 406.614 2778.62ZM1064.31 2761.53C1063.79 2761.53 1063 2761.27 1062.47 2760.74C1061.42 2759.69 1061.42 2758.11 1062.47 2757.32C1065.36 2754.43 1067.99 2751.28 1070.89 2748.38C1071.68 2747.33 1073.25 2747.33 1074.31 2748.12C1075.36 2748.91 1075.36 2750.49 1074.57 2751.54C1071.68 2754.69 1069.05 2757.59 1066.15 2760.48C1065.63 2761.27 1064.84 2761.53 1064.31 2761.53ZM388.995 2761.27C388.469 2761.27 387.68 2761.01 387.154 2760.48C384.261 2757.59 381.369 2754.43 378.739 2751.54C377.95 2750.49 377.95 2748.91 379.002 2748.12C380.054 2747.33 381.632 2747.33 382.421 2748.38C385.05 2751.54 387.943 2754.43 390.836 2757.32C391.887 2758.38 391.625 2759.95 390.836 2760.74C390.31 2761.01 389.521 2761.27 388.995 2761.27ZM1080.88 2743.12C1080.35 2743.12 1079.83 2742.86 1079.3 2742.6C1078.25 2741.81 1078.25 2740.23 1079.04 2739.18C1081.67 2736.02 1084.3 2732.87 1086.93 2729.71C1087.72 2728.66 1089.3 2728.4 1090.35 2729.45C1091.4 2730.24 1091.66 2731.82 1090.61 2732.87C1087.98 2736.02 1085.35 2739.18 1082.72 2742.33C1082.2 2742.86 1081.67 2743.12 1080.88 2743.12ZM372.427 2742.86C371.638 2742.86 371.113 2742.6 370.587 2742.07C367.957 2738.92 365.327 2735.76 362.697 2732.6C361.909 2731.55 361.908 2729.97 362.96 2729.19C364.012 2728.4 365.59 2728.4 366.379 2729.45C369.009 2732.6 371.639 2735.76 374.268 2738.92C375.057 2739.97 375.057 2741.55 374.005 2742.33C373.48 2742.86 372.953 2742.86 372.427 2742.86ZM1096.66 2723.93C1096.13 2723.93 1095.61 2723.66 1095.08 2723.4C1094.03 2722.61 1093.77 2721.03 1094.55 2719.98C1097.18 2716.83 1099.55 2713.41 1101.92 2710.25C1102.71 2709.2 1104.28 2708.94 1105.34 2709.73C1106.39 2710.51 1106.65 2712.09 1105.86 2713.14C1103.5 2716.56 1100.87 2719.72 1098.24 2723.14C1098.24 2723.66 1097.45 2723.93 1096.66 2723.93ZM356.649 2723.93C355.86 2723.93 355.071 2723.66 354.808 2722.87C352.179 2719.72 349.812 2716.3 347.445 2712.88C346.656 2711.83 346.919 2710.25 347.971 2709.46C349.023 2708.67 350.601 2708.94 351.389 2709.99C353.756 2713.41 356.386 2716.56 358.753 2719.72C359.542 2720.77 359.279 2722.35 358.227 2723.14C357.701 2723.66 357.175 2723.93 356.649 2723.93ZM1111.38 2704.2C1110.86 2704.2 1110.33 2703.94 1110.07 2703.68C1109.02 2702.89 1108.76 2701.31 1109.54 2700.26C1111.91 2696.84 1114.28 2693.42 1116.38 2690C1117.17 2688.95 1118.75 2688.42 1119.8 2689.21C1120.85 2690 1121.38 2691.58 1120.59 2692.63C1118.22 2696.05 1115.86 2699.47 1113.49 2702.89C1112.96 2703.68 1112.17 2704.2 1111.38 2704.2ZM341.922 2703.94C341.134 2703.94 340.345 2703.68 339.819 2702.89C337.452 2699.47 335.085 2696.05 332.981 2692.63C332.192 2691.58 332.455 2690 333.77 2689.21C334.822 2688.42 336.4 2688.69 337.189 2690C339.556 2693.42 341.66 2696.84 344.026 2700.26C344.815 2701.31 344.552 2702.89 343.5 2703.68C342.974 2703.94 342.448 2703.94 341.922 2703.94ZM1125.06 2683.43C1124.53 2683.43 1124.27 2683.43 1123.74 2683.16C1122.69 2682.38 1122.17 2680.8 1122.96 2679.75C1125.06 2676.33 1127.16 2672.65 1129.27 2669.23C1130.06 2668.18 1131.37 2667.65 1132.69 2668.44C1133.74 2669.23 1134.26 2670.54 1133.47 2671.86C1131.37 2675.54 1129.27 2678.96 1127.16 2682.64C1126.64 2682.9 1125.85 2683.43 1125.06 2683.43ZM328.511 2683.43C327.722 2683.43 326.933 2682.9 326.407 2682.38C324.303 2678.96 322.2 2675.28 320.096 2671.86C319.307 2670.81 319.833 2669.23 320.885 2668.44C321.936 2667.65 323.514 2668.18 324.303 2669.23C326.407 2672.65 328.511 2676.33 330.615 2679.75C331.404 2680.8 330.878 2682.38 329.826 2683.17C329.3 2683.17 329.037 2683.43 328.511 2683.43ZM315.888 2662.13C315.099 2662.13 314.047 2661.6 313.784 2660.81C311.681 2657.13 309.84 2653.45 307.999 2649.77C307.473 2648.45 307.736 2647.14 309.051 2646.35C310.366 2645.82 311.681 2646.09 312.469 2647.4C314.31 2651.08 316.151 2654.76 318.255 2658.18C318.781 2659.5 318.518 2660.81 317.203 2661.6C316.94 2661.86 316.414 2662.13 315.888 2662.13ZM1137.42 2662.13C1136.89 2662.13 1136.63 2662.13 1136.1 2661.86C1134.79 2661.34 1134.53 2659.76 1135.05 2658.45C1137.16 2654.76 1139 2651.35 1140.84 2647.66C1141.36 2646.35 1142.94 2646.09 1144.26 2646.61C1145.57 2647.14 1145.83 2648.72 1145.31 2650.03C1143.47 2653.71 1141.36 2657.39 1139.52 2661.08C1139.26 2661.6 1138.21 2662.13 1137.42 2662.13ZM304.58 2640.04C303.791 2640.04 302.739 2639.51 302.476 2638.72C300.635 2635.04 299.058 2631.36 297.217 2627.41C296.691 2626.1 297.217 2624.78 298.532 2624.26C299.847 2623.73 301.162 2624.26 301.688 2625.57C303.265 2629.26 305.106 2632.94 306.947 2636.62C307.473 2637.93 306.947 2639.25 305.895 2640.04C305.369 2640.04 305.106 2640.04 304.58 2640.04ZM1148.73 2640.04C1148.46 2640.04 1147.94 2640.04 1147.68 2639.77C1146.36 2639.25 1145.83 2637.67 1146.62 2636.36C1148.46 2632.67 1150.04 2628.99 1151.88 2625.31C1152.41 2624 1153.99 2623.47 1155.04 2624C1156.35 2624.52 1156.88 2626.1 1156.35 2627.15C1154.78 2630.83 1152.94 2634.78 1151.09 2638.46C1150.57 2639.51 1149.78 2640.04 1148.73 2640.04ZM294.587 2617.68C293.535 2617.68 292.746 2617.16 292.22 2616.11C290.642 2612.43 289.065 2608.48 287.487 2604.54C286.961 2603.22 287.75 2601.91 288.802 2601.38C290.117 2600.85 291.431 2601.64 291.957 2602.69C293.535 2606.38 294.85 2610.32 296.428 2614C296.954 2615.32 296.428 2616.63 295.113 2617.16C295.113 2617.68 294.85 2617.68 294.587 2617.68ZM1158.98 2617.42C1158.72 2617.42 1158.46 2617.42 1157.93 2617.16C1156.62 2616.63 1156.09 2615.32 1156.62 2614C1158.19 2610.32 1159.77 2606.38 1161.35 2602.69C1161.88 2601.38 1163.19 2600.85 1164.51 2601.38C1165.82 2601.91 1166.35 2603.22 1165.82 2604.54C1164.24 2608.48 1162.66 2612.16 1161.09 2616.11C1160.82 2616.9 1160.04 2617.42 1158.98 2617.42ZM285.646 2594.54C284.594 2594.54 283.805 2594.02 283.279 2592.96C281.965 2589.02 280.65 2585.08 279.335 2581.13C278.809 2579.82 279.598 2578.5 280.913 2577.98C282.227 2577.45 283.542 2578.24 284.068 2579.55C285.383 2583.5 286.698 2587.44 288.013 2591.12C288.539 2592.44 287.75 2593.75 286.435 2594.28C286.172 2594.54 285.909 2594.54 285.646 2594.54ZM1167.92 2594.28C1167.66 2594.28 1167.4 2594.28 1167.14 2594.02C1165.82 2593.49 1165.29 2592.18 1165.56 2590.86C1166.87 2586.92 1168.19 2582.97 1169.5 2579.29C1170.03 2577.98 1171.34 2577.19 1172.66 2577.71C1173.97 2578.24 1174.76 2579.55 1174.24 2580.87C1172.92 2584.81 1171.61 2588.76 1170.29 2592.7C1170.03 2593.75 1168.98 2594.28 1167.92 2594.28ZM278.02 2571.14C276.968 2571.14 275.916 2570.35 275.653 2569.3C274.601 2565.35 273.286 2561.41 272.234 2557.46C271.971 2556.15 272.76 2554.83 274.075 2554.31C275.39 2554.04 276.705 2554.83 277.231 2556.15C278.283 2560.09 279.335 2564.04 280.65 2567.98C280.913 2569.3 280.386 2570.61 279.072 2571.14C278.283 2571.14 278.02 2571.14 278.02 2571.14ZM1175.55 2570.87C1175.29 2570.87 1175.02 2570.87 1174.76 2570.87C1173.45 2570.61 1172.66 2569.03 1173.18 2567.72C1174.24 2563.77 1175.55 2559.83 1176.6 2555.89C1176.87 2554.57 1178.44 2553.78 1179.5 2554.04C1180.81 2554.31 1181.6 2555.62 1181.34 2556.94C1180.28 2560.88 1179.23 2565.09 1177.92 2568.77C1177.65 2570.09 1176.6 2570.87 1175.55 2570.87ZM271.446 2547.21C270.394 2547.21 269.342 2546.42 269.079 2545.37C268.027 2541.42 267.238 2537.21 266.186 2533.27C265.923 2531.95 266.712 2530.64 268.027 2530.38C269.342 2530.11 270.656 2530.9 270.919 2532.22C271.708 2536.16 272.76 2540.11 273.549 2544.31C273.812 2545.63 273.023 2546.94 271.708 2547.21C271.971 2547.21 271.709 2547.21 271.446 2547.21ZM1182.13 2546.94C1181.86 2546.94 1181.86 2546.94 1181.6 2546.94C1180.28 2546.68 1179.5 2545.37 1179.76 2544.05C1180.81 2540.11 1181.6 2536.16 1182.39 2531.95C1182.65 2530.64 1183.97 2529.85 1185.28 2530.11C1186.6 2530.38 1187.38 2531.69 1187.12 2533.01C1186.33 2536.95 1185.28 2541.16 1184.49 2545.1C1184.23 2546.16 1183.18 2546.94 1182.13 2546.94ZM266.186 2523.01C265.134 2523.01 264.082 2522.22 263.819 2520.91C263.03 2516.97 262.241 2512.76 261.715 2508.55C261.452 2507.24 262.504 2505.92 263.819 2505.66C265.134 2505.39 266.449 2506.45 266.712 2507.76C267.238 2511.71 268.027 2515.91 268.816 2519.86C269.079 2521.17 268.29 2522.49 266.975 2522.75C266.449 2523.01 266.449 2523.01 266.186 2523.01ZM1187.12 2522.75C1186.86 2522.75 1186.86 2522.75 1186.6 2522.75C1185.28 2522.49 1184.49 2521.17 1184.49 2519.86C1185.28 2515.91 1185.81 2511.71 1186.6 2507.76C1186.86 2506.45 1188.17 2505.39 1189.49 2505.66C1190.8 2505.92 1191.86 2507.24 1191.59 2508.55C1191.07 2512.49 1190.28 2516.7 1189.49 2520.91C1189.49 2521.96 1188.44 2522.75 1187.12 2522.75ZM262.504 2498.82C261.189 2498.82 260.138 2498.03 260.138 2496.72C259.612 2492.51 259.086 2488.56 258.56 2484.36C258.297 2483.04 259.348 2481.73 260.663 2481.73C261.978 2481.46 263.293 2482.52 263.293 2483.83C263.819 2488.04 264.082 2491.98 264.871 2495.93C265.134 2497.24 264.082 2498.56 262.767 2498.82C262.504 2498.82 262.504 2498.82 262.504 2498.82ZM1191.07 2498.29L1190.8 2498.29C1189.49 2498.03 1188.44 2496.98 1188.7 2495.4C1189.23 2491.46 1189.75 2487.25 1190.01 2483.3C1190.28 2481.99 1191.33 2480.94 1192.64 2481.2C1193.96 2481.46 1195.01 2482.52 1194.75 2483.83C1194.22 2488.04 1193.7 2491.98 1193.17 2496.19C1193.43 2497.51 1192.38 2498.29 1191.07 2498.29ZM259.875 2474.1C258.56 2474.1 257.508 2473.05 257.508 2471.73C257.245 2467.53 256.982 2463.58 256.719 2459.37C256.719 2458.06 257.771 2456.74 259.086 2456.74C260.4 2456.74 261.715 2457.8 261.715 2459.11C261.978 2463.32 262.241 2467.26 262.504 2471.47C262.241 2472.79 261.452 2474.1 259.875 2474.1ZM1193.7 2473.57C1193.7 2473.57 1193.43 2473.57 1193.7 2473.57C1192.12 2473.57 1191.07 2472.26 1191.33 2470.94C1191.59 2467 1191.86 2462.79 1192.12 2458.58C1192.12 2457.27 1193.43 2456.22 1194.75 2456.22C1196.06 2456.22 1197.11 2457.53 1197.11 2458.85C1196.85 2463.06 1196.59 2467 1196.33 2471.21C1196.06 2472.79 1195.01 2473.57 1193.7 2473.57ZM258.56 2449.38C257.245 2449.38 256.193 2448.33 256.193 2447.01C256.193 2442.81 255.93 2438.86 255.93 2434.65C255.93 2433.34 256.982 2432.29 258.297 2432.29C259.612 2432.29 260.663 2433.34 260.663 2434.65C260.663 2438.86 260.664 2442.81 260.927 2447.01C260.927 2448.33 259.875 2449.38 258.56 2449.38ZM1195.01 2449.12C1193.7 2449.12 1192.38 2448.07 1192.64 2446.49C1192.64 2442.28 1192.91 2438.34 1192.91 2434.13L1192.91 2433.34C1192.91 2432.02 1193.96 2430.97 1195.27 2430.97C1196.59 2430.97 1197.64 2432.02 1197.64 2433.34L1197.64 2434.13C1197.64 2438.34 1197.64 2442.54 1197.38 2446.49C1197.38 2448.07 1196.33 2449.12 1195.01 2449.12ZM258.56 2424.66C258.56 2424.66 258.297 2424.66 258.56 2424.66C257.245 2424.66 255.93 2423.61 256.193 2422.03C256.193 2417.82 256.456 2413.62 256.719 2409.67C256.719 2408.36 258.034 2407.31 259.348 2407.31C260.663 2407.31 261.715 2408.62 261.715 2409.93C261.452 2414.14 261.452 2418.09 261.189 2422.29C260.926 2423.61 259.875 2424.66 258.56 2424.66ZM1195.01 2423.35C1193.7 2423.35 1192.64 2422.29 1192.64 2420.98C1192.64 2416.77 1192.38 2412.83 1192.12 2408.62C1192.12 2407.3 1193.17 2405.99 1194.49 2405.99C1195.8 2405.99 1197.11 2407.04 1197.11 2408.36C1197.38 2412.56 1197.38 2416.51 1197.64 2420.72C1197.38 2422.29 1196.33 2423.35 1195.01 2423.35ZM259.612 2399.94C258.034 2399.94 256.982 2398.63 257.245 2397.31C257.508 2393.1 258.034 2389.16 258.297 2384.95C258.56 2383.64 259.612 2382.59 260.927 2382.85C262.241 2383.11 263.293 2384.16 263.03 2385.48C262.504 2389.42 262.241 2393.63 261.978 2397.84C261.978 2399.15 260.927 2399.94 259.612 2399.94ZM1193.7 2398.89C1192.38 2398.89 1191.33 2397.84 1191.33 2396.52C1191.07 2392.32 1190.54 2388.37 1190.28 2384.16C1190.01 2382.85 1191.07 2381.53 1192.38 2381.53C1193.7 2381.27 1195.01 2382.32 1195.01 2383.64C1195.54 2387.84 1195.8 2391.79 1196.06 2396C1196.06 2397.57 1195.27 2398.63 1193.7 2398.89ZM262.241 2375.49L261.978 2375.49C260.663 2375.22 259.612 2374.17 259.875 2372.59C260.401 2368.38 260.926 2364.44 261.715 2360.23C261.978 2358.92 263.293 2357.87 264.608 2358.13C265.923 2358.39 266.975 2359.71 266.712 2361.02C266.186 2364.97 265.397 2369.17 264.871 2373.12C264.608 2374.43 263.556 2375.49 262.241 2375.49ZM1191.07 2374.17C1189.75 2374.17 1188.7 2373.38 1188.7 2372.07C1188.17 2368.12 1187.65 2363.91 1186.86 2359.97C1186.6 2358.65 1187.65 2357.34 1188.96 2357.08C1190.28 2356.81 1191.59 2357.87 1191.86 2359.18C1192.38 2363.39 1193.17 2367.33 1193.7 2371.54C1193.96 2372.86 1192.91 2374.17 1191.59 2374.43C1191.33 2374.17 1191.07 2374.17 1191.07 2374.17ZM266.186 2351.03C265.923 2351.03 265.923 2351.03 265.66 2351.03C264.345 2350.77 263.556 2349.45 263.556 2348.14C264.345 2344.19 265.134 2339.98 265.923 2336.04C266.186 2334.72 267.501 2333.94 268.816 2334.2C270.131 2334.46 270.919 2335.78 270.656 2337.09C269.868 2341.04 269.079 2345.24 268.29 2349.19C268.29 2350.24 267.238 2351.03 266.186 2351.03ZM1187.12 2349.71C1186.07 2349.71 1185.02 2348.92 1184.75 2347.61C1183.97 2343.67 1183.18 2339.46 1182.39 2335.51C1182.12 2334.2 1182.91 2332.88 1184.23 2332.62C1185.54 2332.36 1186.86 2333.15 1187.12 2334.46C1187.91 2338.41 1188.7 2342.61 1189.49 2346.56C1189.75 2347.87 1188.96 2349.19 1187.65 2349.45C1187.38 2349.71 1187.12 2349.71 1187.12 2349.71ZM271.182 2326.83C270.919 2326.83 270.919 2326.83 270.656 2326.83C269.342 2326.57 268.553 2325.26 268.816 2323.94C269.868 2320 270.919 2315.79 271.971 2311.85C272.234 2310.53 273.549 2309.74 274.864 2310C276.179 2310.27 276.968 2311.58 276.705 2312.9C275.653 2316.84 274.601 2320.79 273.549 2324.73C273.286 2326.05 272.497 2326.83 271.182 2326.83ZM1181.86 2325.52C1180.81 2325.52 1179.76 2324.73 1179.5 2323.68C1178.44 2319.73 1177.39 2315.79 1176.34 2311.85C1176.08 2310.53 1176.87 2309.22 1178.18 2308.69C1179.5 2308.43 1180.81 2309.22 1181.34 2310.53C1182.39 2314.48 1183.44 2318.68 1184.49 2322.63C1184.75 2323.94 1183.97 2325.26 1182.65 2325.52C1182.39 2325.52 1182.13 2325.52 1181.86 2325.52ZM277.757 2302.9C277.494 2302.9 277.231 2302.9 276.968 2302.9C275.653 2302.64 274.864 2301.06 275.39 2299.75C276.442 2295.8 277.757 2291.86 279.072 2287.91C279.597 2286.6 280.913 2285.81 282.227 2286.34C283.542 2286.86 284.331 2288.18 283.805 2289.49C282.49 2293.44 281.438 2297.38 280.123 2301.33C279.598 2302.38 278.809 2302.9 277.757 2302.9ZM1175.29 2301.85C1174.24 2301.85 1173.18 2301.06 1172.92 2300.01C1171.87 2296.07 1170.55 2292.12 1169.24 2288.18C1168.71 2286.86 1169.5 2285.55 1170.82 2285.02C1172.13 2284.5 1173.45 2285.28 1173.97 2286.6C1175.29 2290.54 1176.6 2294.49 1177.65 2298.43C1177.92 2299.75 1177.39 2301.06 1176.08 2301.59C1175.81 2301.59 1175.55 2301.85 1175.29 2301.85ZM285.383 2279.5C285.12 2279.5 284.857 2279.5 284.594 2279.24C283.279 2278.71 282.753 2277.4 283.016 2276.08C284.331 2272.14 285.909 2268.19 287.487 2264.51C288.013 2263.2 289.328 2262.67 290.642 2263.2C291.957 2263.72 292.483 2265.04 291.957 2266.35C290.379 2270.3 289.065 2273.98 287.75 2277.92C287.224 2278.71 286.435 2279.5 285.383 2279.5ZM1167.66 2278.18C1166.61 2278.18 1165.82 2277.66 1165.29 2276.61C1163.98 2272.66 1162.4 2268.98 1161.09 2265.04C1160.56 2263.72 1161.35 2262.41 1162.4 2261.88C1163.72 2261.35 1165.03 2262.14 1165.56 2263.2C1167.14 2267.14 1168.45 2270.82 1170.03 2274.77C1170.55 2276.08 1169.77 2277.4 1168.45 2277.92C1168.19 2278.18 1167.92 2278.18 1167.66 2278.18ZM294.324 2256.36C294.061 2256.36 293.798 2256.36 293.272 2256.09C291.957 2255.57 291.431 2254.25 291.957 2252.94C293.535 2249.26 295.113 2245.31 296.954 2241.63C297.48 2240.32 299.058 2239.79 300.109 2240.32C301.424 2240.84 301.95 2242.42 301.424 2243.47C299.846 2247.15 298.006 2251.1 296.428 2254.78C296.165 2255.57 295.376 2256.36 294.324 2256.36ZM1158.72 2255.31C1157.67 2255.31 1156.88 2254.78 1156.35 2253.73C1154.78 2250.05 1153.2 2246.1 1151.36 2242.42C1150.83 2241.11 1151.36 2239.79 1152.67 2239.26C1153.99 2238.74 1155.3 2239.26 1155.83 2240.58C1157.41 2244.26 1159.25 2248.21 1160.82 2251.89C1161.35 2253.2 1160.82 2254.52 1159.51 2255.04C1159.25 2255.31 1158.98 2255.31 1158.72 2255.31ZM304.58 2233.74C304.317 2233.74 303.791 2233.74 303.528 2233.48C302.213 2232.95 301.687 2231.38 302.476 2230.06C304.317 2226.38 306.158 2222.7 307.999 2219.02C308.525 2217.7 310.103 2217.44 311.417 2217.96C312.732 2218.49 312.995 2220.07 312.469 2221.38C310.629 2225.06 308.788 2228.75 306.947 2232.43C306.158 2233.22 305.369 2233.74 304.58 2233.74ZM1148.46 2232.69C1147.68 2232.69 1146.62 2232.16 1146.36 2231.38C1144.52 2227.69 1142.68 2224.01 1140.84 2220.33C1140.31 2219.02 1140.58 2217.7 1141.89 2216.91C1143.21 2216.39 1144.52 2216.65 1145.31 2217.96C1147.15 2221.65 1148.99 2225.33 1150.83 2229.01C1151.36 2230.32 1150.83 2231.64 1149.78 2232.43C1149.25 2232.69 1148.99 2232.69 1148.46 2232.69ZM315.888 2211.65C315.362 2211.65 315.099 2211.65 314.573 2211.39C313.258 2210.86 312.995 2209.29 313.521 2207.97C315.625 2204.29 317.466 2200.61 319.57 2197.19C320.359 2196.14 321.674 2195.61 322.988 2196.4C324.04 2197.19 324.566 2198.5 323.777 2199.82C321.673 2203.24 319.57 2206.92 317.729 2210.6C317.466 2211.13 316.677 2211.65 315.888 2211.65ZM1137.16 2210.86C1136.37 2210.86 1135.32 2210.34 1135.05 2209.55C1132.95 2205.87 1131.11 2202.45 1129 2198.77C1128.22 2197.71 1128.74 2196.14 1129.79 2195.35C1130.84 2194.56 1132.42 2195.08 1133.21 2196.14C1135.32 2199.82 1137.42 2203.24 1139.26 2206.92C1140.05 2208.23 1139.52 2209.55 1138.21 2210.34C1137.95 2210.86 1137.68 2210.86 1137.16 2210.86ZM328.248 2190.35C327.722 2190.35 327.459 2190.35 326.933 2190.09C325.881 2189.3 325.355 2187.72 326.144 2186.67C328.248 2183.25 330.615 2179.57 332.718 2176.15C333.507 2175.1 335.085 2174.57 336.137 2175.36C337.189 2176.15 337.715 2177.73 336.926 2178.78C334.559 2182.2 332.455 2185.62 330.351 2189.04C329.826 2189.83 329.037 2190.35 328.248 2190.35ZM1124.8 2189.56C1124.01 2189.56 1123.22 2189.04 1122.69 2188.51C1120.59 2185.09 1118.22 2181.67 1116.12 2178.25C1115.33 2177.2 1115.59 2175.62 1116.91 2174.84C1117.96 2174.05 1119.54 2174.31 1120.33 2175.62C1122.69 2179.04 1124.8 2182.46 1126.9 2186.14C1127.69 2187.2 1127.16 2188.77 1126.11 2189.56C1125.59 2189.56 1125.32 2189.56 1124.8 2189.56ZM341.922 2169.58C341.396 2169.58 340.871 2169.31 340.608 2169.05C339.556 2168.26 339.293 2166.68 340.082 2165.63C342.448 2162.21 344.815 2158.79 347.445 2155.64C348.234 2154.59 349.812 2154.32 350.864 2155.11C351.915 2155.9 352.178 2157.48 351.389 2158.53C349.023 2161.69 346.656 2165.11 344.289 2168.52C343.5 2169.05 342.711 2169.58 341.922 2169.58ZM1111.12 2169.05C1110.33 2169.05 1109.54 2168.79 1109.02 2168C1106.65 2164.58 1104.28 2161.42 1101.92 2158.01C1101.13 2156.95 1101.39 2155.38 1102.44 2154.59C1103.5 2153.8 1105.07 2154.06 1105.86 2155.11C1108.23 2158.53 1110.86 2161.69 1113.23 2165.11C1114.01 2166.16 1113.75 2167.74 1112.7 2168.52C1112.17 2168.79 1111.65 2169.05 1111.12 2169.05ZM356.649 2149.59C356.123 2149.59 355.597 2149.33 355.071 2149.06C354.019 2148.28 353.756 2146.7 354.545 2145.65C357.175 2142.49 359.805 2139.07 362.172 2135.92C362.961 2134.86 364.538 2134.6 365.59 2135.65C366.642 2136.44 366.905 2138.02 365.853 2139.07C363.223 2142.23 360.594 2145.38 358.227 2148.8C357.964 2149.33 357.175 2149.59 356.649 2149.59ZM1096.4 2149.06C1095.61 2149.06 1094.82 2148.8 1094.55 2148.01C1091.93 2144.86 1089.56 2141.7 1086.93 2138.55C1086.14 2137.49 1086.14 2135.92 1087.19 2135.13C1088.24 2134.34 1089.82 2134.34 1090.61 2135.39C1093.24 2138.55 1095.87 2141.7 1098.5 2145.12C1099.29 2146.17 1099.03 2147.75 1097.97 2148.54C1097.45 2149.06 1096.92 2149.06 1096.4 2149.06ZM372.164 2130.39C371.638 2130.39 371.113 2130.13 370.587 2129.87C369.535 2129.08 369.535 2127.5 370.324 2126.45C372.953 2123.29 375.846 2120.14 378.476 2117.24C379.265 2116.19 380.843 2116.19 381.895 2116.98C382.947 2117.77 382.947 2119.35 382.158 2120.4C379.265 2123.56 376.635 2126.45 374.005 2129.6C373.479 2130.13 372.953 2130.39 372.164 2130.39ZM1080.88 2130.13C1080.09 2130.13 1079.57 2129.87 1079.04 2129.34C1076.41 2126.19 1073.52 2123.29 1070.89 2120.14C1070.1 2119.09 1070.1 2117.51 1071.15 2116.72C1072.2 2115.93 1073.78 2115.93 1074.57 2116.98C1077.46 2120.14 1080.09 2123.03 1082.72 2126.19C1083.51 2127.24 1083.51 2128.82 1082.46 2129.6C1081.93 2129.87 1081.41 2130.13 1080.88 2130.13ZM388.995 2112.25C388.469 2112.25 387.68 2111.98 387.417 2111.46C386.365 2110.41 386.365 2108.83 387.417 2108.04C390.31 2105.15 393.202 2101.99 396.095 2099.1C397.147 2098.05 398.725 2098.05 399.514 2099.1C400.566 2100.15 400.566 2101.73 399.514 2102.52C396.621 2105.41 393.728 2108.3 390.836 2111.2C390.047 2111.99 389.521 2112.25 388.995 2112.25ZM1064.05 2111.72C1063.52 2111.72 1062.73 2111.46 1062.21 2110.93C1059.32 2108.04 1056.42 2105.15 1053.53 2102.25C1052.48 2101.2 1052.48 2099.63 1053.53 2098.84C1054.58 2097.78 1056.16 2097.78 1056.95 2098.84C1059.84 2101.73 1062.73 2104.62 1065.63 2107.78C1066.68 2108.83 1066.42 2110.41 1065.63 2111.2C1065.36 2111.46 1064.84 2111.72 1064.05 2111.72ZM406.351 2094.89C405.562 2094.89 405.036 2094.63 404.51 2094.1C403.458 2093.05 403.721 2091.47 404.51 2090.68C407.403 2087.79 410.559 2085.16 413.714 2082.27C414.766 2081.48 416.344 2081.48 417.133 2082.53C417.922 2083.58 417.922 2085.16 416.87 2085.95C413.714 2088.58 410.822 2091.47 407.666 2094.37C407.666 2094.63 407.14 2094.89 406.351 2094.89ZM1046.43 2094.37C1045.9 2094.37 1045.12 2094.1 1044.85 2093.58C1041.96 2090.68 1038.8 2088.05 1035.65 2085.42C1034.6 2084.64 1034.6 2083.06 1035.39 2082.01C1036.17 2080.95 1037.75 2080.95 1038.8 2081.74C1041.96 2084.37 1044.85 2087.27 1048.01 2090.16C1049.06 2091.21 1049.06 2092.52 1048.01 2093.58C1047.75 2094.1 1047.22 2094.37 1046.43 2094.37ZM425.022 2078.32C424.233 2078.32 423.707 2078.06 423.181 2077.54C422.393 2076.48 422.393 2074.91 423.444 2074.12C426.6 2071.49 429.756 2068.86 432.911 2066.23C433.963 2065.44 435.541 2065.44 436.33 2066.49C437.119 2067.54 437.119 2069.12 436.067 2069.91C432.912 2072.54 429.756 2075.17 426.6 2077.8C426.074 2078.32 425.548 2078.32 425.022 2078.32ZM1028.02 2078.06C1027.5 2078.06 1026.97 2077.8 1026.44 2077.54C1023.29 2074.91 1020.13 2072.28 1016.98 2069.65C1015.93 2068.86 1015.66 2067.28 1016.71 2066.23C1017.5 2065.18 1019.08 2064.91 1020.13 2065.96C1023.29 2068.59 1026.71 2071.22 1029.86 2073.85C1030.91 2074.64 1030.92 2076.22 1030.13 2077.27C1029.34 2077.8 1028.81 2078.06 1028.02 2078.06ZM444.219 2063.07C443.431 2063.07 442.642 2062.81 442.379 2062.02C441.59 2060.97 441.853 2059.39 442.905 2058.6C446.323 2056.23 449.479 2053.6 452.898 2051.24C453.95 2050.45 455.527 2050.71 456.316 2051.76C457.105 2052.82 456.842 2054.39 455.79 2055.18C452.372 2057.55 449.216 2059.92 445.797 2062.55C445.271 2062.81 444.745 2063.07 444.219 2063.07ZM1008.82 2062.55C1008.3 2062.55 1007.77 2062.28 1007.25 2062.02C1004.09 2059.65 1000.67 2057.02 997.254 2054.66C996.202 2053.87 995.939 2052.29 996.728 2051.24C997.517 2050.19 999.095 2049.92 1000.15 2050.71C1003.57 2053.08 1006.98 2055.71 1010.14 2058.08C1011.19 2058.86 1011.45 2060.44 1010.67 2061.49C1010.14 2062.28 1009.35 2062.55 1008.82 2062.55ZM464.205 2048.61C463.416 2048.61 462.628 2048.35 462.102 2047.56C461.313 2046.5 461.576 2044.93 462.891 2044.14C466.309 2041.77 469.728 2039.4 473.147 2037.3C474.198 2036.51 475.776 2036.77 476.565 2038.09C477.354 2039.14 477.091 2040.72 475.776 2041.51C472.358 2043.61 468.939 2045.98 465.52 2048.35C465.257 2048.35 464.731 2048.61 464.205 2048.61ZM988.576 2048.08C988.05 2048.08 987.524 2047.82 987.261 2047.56C983.843 2045.19 980.424 2043.09 977.005 2040.72C975.953 2039.93 975.427 2038.35 976.216 2037.3C977.005 2036.25 978.583 2035.72 979.635 2036.51C983.054 2038.62 986.472 2040.98 990.154 2043.35C991.206 2044.14 991.469 2045.72 990.943 2046.77C990.154 2047.82 989.365 2048.08 988.576 2048.08ZM484.98 2035.2C484.192 2035.2 483.402 2034.67 482.877 2033.88C482.088 2032.83 482.614 2031.25 483.666 2030.46C487.084 2028.36 490.766 2026.26 494.447 2024.15C495.762 2023.36 497.077 2023.89 497.866 2025.2C498.655 2026.52 498.129 2027.83 496.814 2028.62C493.133 2030.73 489.714 2032.83 486.295 2034.93C486.032 2035.2 485.506 2035.2 484.98 2035.2ZM967.801 2034.93C967.275 2034.93 967.012 2034.93 966.486 2034.67C963.067 2032.57 959.386 2030.46 955.967 2028.36C954.652 2027.57 954.389 2026.26 954.915 2024.94C955.704 2023.63 957.019 2023.36 958.334 2023.89C962.016 2025.99 965.697 2028.1 969.116 2030.2C970.168 2030.99 970.694 2032.3 969.905 2033.62C969.379 2034.41 968.59 2034.93 967.801 2034.93ZM506.544 2023.1C505.755 2023.1 504.704 2022.57 504.441 2021.78C503.915 2020.47 504.178 2019.16 505.493 2018.37C509.174 2016.53 512.856 2014.42 516.537 2012.58C517.852 2012.05 519.167 2012.58 519.956 2013.63C520.482 2014.95 519.956 2016.26 518.904 2017.05C515.223 2018.89 511.541 2020.73 508.122 2022.57C507.333 2023.1 507.07 2023.1 506.544 2023.1ZM946.237 2022.57C945.974 2022.57 945.448 2022.57 945.185 2022.31C941.504 2020.47 937.822 2018.63 934.141 2016.79C932.826 2016.26 932.3 2014.68 933.089 2013.37C933.614 2012.05 935.192 2011.53 936.507 2012.32C940.189 2014.16 943.87 2016 947.552 2018.1C948.867 2018.63 949.13 2020.21 948.604 2021.52C947.815 2022.31 947.026 2022.57 946.237 2022.57ZM528.634 2012.05C527.582 2012.05 526.793 2011.53 526.267 2010.74C525.741 2009.43 526.267 2008.11 527.582 2007.58C531.264 2005.74 535.208 2004.17 538.89 2002.59C540.205 2002.06 541.52 2002.59 542.046 2003.9C542.572 2005.22 542.046 2006.53 540.731 2007.06C537.049 2008.64 533.368 2010.48 529.686 2012.05C529.423 2012.05 528.897 2012.05 528.634 2012.05ZM923.884 2011.79C923.621 2011.79 923.095 2011.79 922.832 2011.53C919.151 2009.69 915.469 2008.11 911.524 2006.53C910.21 2006.01 909.684 2004.43 910.21 2003.38C910.736 2002.06 912.314 2001.54 913.365 2002.06C917.047 2003.64 920.992 2005.48 924.673 2007.06C925.988 2007.58 926.514 2009.16 925.988 2010.21C925.725 2011.27 924.936 2011.79 923.884 2011.79ZM551.25 2002.32C550.198 2002.32 549.409 2001.8 548.883 2000.75C548.357 1999.43 548.883 1998.12 550.198 1997.59C554.143 1996.01 557.824 1994.44 561.769 1993.12C563.084 1992.59 564.399 1993.38 564.925 1994.7C565.451 1996.01 564.662 1997.33 563.347 1997.85C559.402 1999.17 555.721 2000.75 551.776 2002.32C551.776 2002.06 551.513 2002.32 551.25 2002.32ZM901.269 2001.8C901.006 2001.8 900.743 2001.8 900.48 2001.54C896.798 1999.96 892.853 1998.64 888.909 1997.07C887.594 1996.54 887.068 1995.22 887.331 1993.91C887.857 1992.59 889.172 1992.07 890.487 1992.33C894.431 1993.65 898.376 1995.22 902.057 1996.8C903.372 1997.33 903.898 1998.64 903.372 1999.96C903.109 2001.27 902.058 2001.8 901.269 2001.8ZM574.392 1993.65C573.34 1993.65 572.288 1993.12 572.025 1992.07C571.499 1990.75 572.288 1989.44 573.603 1988.91C577.547 1987.6 581.492 1986.28 585.436 1984.97C586.751 1984.44 588.066 1985.23 588.592 1986.55C589.118 1987.86 588.329 1989.18 587.015 1989.7C583.07 1991.02 579.125 1992.33 575.444 1993.65C574.918 1993.65 574.655 1993.65 574.392 1993.65ZM877.864 1993.12C877.601 1993.12 877.338 1993.12 877.075 1992.86C873.13 1991.54 869.186 1990.23 865.241 1988.91C863.926 1988.39 863.137 1987.07 863.663 1985.76C864.189 1984.44 865.504 1983.65 866.819 1984.18C870.763 1985.49 874.708 1986.81 878.653 1988.12C879.968 1988.65 880.757 1989.96 880.231 1991.28C879.968 1992.59 878.916 1993.12 877.864 1993.12ZM598.059 1986.28C597.007 1986.28 595.955 1985.49 595.693 1984.44C595.43 1983.13 595.955 1981.81 597.27 1981.29C601.215 1980.23 605.16 1979.18 609.367 1978.13C610.682 1977.87 611.997 1978.66 612.26 1979.97C612.523 1981.29 611.734 1982.6 610.419 1982.86C606.474 1983.92 602.53 1984.97 598.585 1986.02C598.322 1986.02 598.059 1986.28 598.059 1986.28ZM854.196 1985.76C853.933 1985.76 853.67 1985.76 853.407 1985.76C849.463 1984.71 845.518 1983.65 841.573 1982.6C840.259 1982.34 839.47 1981.02 839.733 1979.71C839.996 1978.39 841.31 1977.61 842.625 1977.87C846.57 1978.92 850.777 1979.97 854.722 1981.02C856.037 1981.29 856.826 1982.86 856.3 1984.18C856.3 1985.23 855.248 1985.76 854.196 1985.76ZM621.99 1979.97C620.938 1979.97 619.886 1979.18 619.623 1978.13C619.36 1976.82 620.149 1975.5 621.464 1975.24C625.409 1974.45 629.616 1973.4 633.561 1972.61C634.876 1972.35 636.191 1973.13 636.454 1974.45C636.716 1975.76 635.928 1977.08 634.613 1977.34C630.668 1978.13 626.461 1978.92 622.516 1979.97C622.253 1979.97 621.99 1979.97 621.99 1979.97ZM830.266 1979.71C830.003 1979.71 830.003 1979.71 829.74 1979.71C825.795 1978.92 821.85 1977.87 817.643 1977.08C816.328 1976.82 815.539 1975.5 815.802 1974.19C816.065 1972.87 817.38 1972.08 818.695 1972.35C822.639 1973.13 826.847 1973.92 830.792 1974.98C832.106 1975.24 832.895 1976.55 832.632 1977.87C832.369 1978.92 831.581 1979.71 830.266 1979.71ZM646.184 1975.24C645.132 1975.24 644.08 1974.45 643.817 1973.13C643.554 1971.82 644.606 1970.5 645.921 1970.24C649.865 1969.45 654.073 1968.93 658.28 1968.4C659.595 1968.14 660.91 1969.19 661.173 1970.5C661.436 1971.82 660.384 1973.13 659.069 1973.4C655.125 1973.92 650.917 1974.71 646.972 1975.24C646.447 1975.24 646.184 1975.24 646.184 1975.24ZM806.072 1974.98C805.809 1974.98 805.809 1974.98 805.546 1974.98C801.601 1974.19 797.394 1973.66 793.449 1973.13C792.134 1972.87 791.082 1971.82 791.345 1970.24C791.608 1968.93 792.66 1967.88 794.238 1968.14C798.446 1968.66 802.39 1969.45 806.598 1969.98C807.913 1970.24 808.965 1971.56 808.702 1972.87C808.176 1974.19 807.124 1974.98 806.072 1974.98ZM670.64 1971.56C669.325 1971.56 668.273 1970.77 668.273 1969.45C668.01 1968.14 669.062 1966.82 670.377 1966.82C674.585 1966.3 678.529 1965.77 682.737 1965.51C684.052 1965.51 685.367 1966.3 685.367 1967.61C685.367 1968.93 684.578 1970.24 683.263 1970.24C679.318 1970.5 675.111 1971.03 671.166 1971.56C670.903 1971.56 670.64 1971.56 670.64 1971.56ZM781.615 1971.29L781.352 1971.29C777.408 1970.77 773.2 1970.5 768.993 1969.98C767.678 1969.98 766.626 1968.66 766.626 1967.35C766.626 1966.03 767.941 1964.98 769.255 1964.98C773.463 1965.25 777.408 1965.77 781.615 1966.3C782.93 1966.56 783.982 1967.61 783.719 1968.93C783.982 1970.5 782.93 1971.29 781.615 1971.29ZM695.097 1969.19C693.782 1969.19 692.73 1968.14 692.73 1966.82C692.73 1965.51 693.782 1964.19 695.097 1964.19C699.304 1963.93 703.249 1963.67 707.457 1963.4C708.771 1963.4 710.086 1964.46 710.086 1965.77C710.086 1967.09 709.034 1968.4 707.719 1968.4C703.512 1968.66 699.567 1968.93 695.097 1969.19C695.36 1969.19 695.36 1969.19 695.097 1969.19ZM756.896 1969.19C752.688 1968.93 748.48 1968.66 744.536 1968.66C743.221 1968.66 742.169 1967.35 742.169 1966.03C742.169 1964.72 743.484 1963.67 744.799 1963.67C749.007 1963.93 753.214 1963.93 757.159 1964.19C758.474 1964.19 759.526 1965.51 759.526 1966.82C759.263 1968.14 758.211 1969.19 756.896 1969.19ZM719.817 1968.4C718.502 1968.4 717.45 1967.35 717.45 1966.03C717.45 1964.72 718.502 1963.67 719.817 1963.4C724.024 1963.4 728.232 1963.4 732.176 1963.4C733.491 1963.4 734.543 1964.46 734.543 1965.77C734.543 1967.09 733.228 1968.14 732.176 1968.14C728.232 1968.14 724.024 1968.14 719.817 1968.4Z" fill="#0F0F0F"/>
<path d="M720.605 1125.05C716.398 1125.05 712.19 1124.78 707.983 1124.26C706.668 1124.26 705.616 1122.94 705.879 1121.63C705.879 1120.31 707.194 1119.26 708.509 1119.52C712.453 1119.79 716.661 1120.05 720.605 1120.31C721.92 1120.31 722.972 1121.36 722.972 1122.94C722.972 1123.99 721.92 1125.05 720.605 1125.05ZM732.965 1125.05C731.651 1125.05 730.599 1123.99 730.599 1122.68C730.599 1121.36 731.651 1120.05 732.965 1120.05C736.91 1120.05 741.118 1119.79 745.062 1119.26C746.377 1119.26 747.692 1120.05 747.692 1121.36C747.692 1122.68 746.903 1123.99 745.588 1123.99C741.38 1124.52 737.173 1124.78 732.965 1125.05ZM696.149 1122.68L695.886 1122.68C691.678 1122.15 687.734 1121.36 683.526 1120.31C682.211 1120.05 681.422 1118.73 681.685 1117.42C681.948 1116.1 683.263 1115.31 684.578 1115.58C688.523 1116.37 692.467 1117.16 696.675 1117.68C697.99 1117.94 699.042 1119.26 698.779 1120.57C698.253 1121.89 697.201 1122.68 696.149 1122.68ZM757.685 1122.68C756.37 1122.68 755.318 1121.89 755.318 1120.57C755.055 1119.26 756.107 1117.94 757.422 1117.68C761.366 1117.16 765.574 1116.37 769.519 1115.31C770.833 1115.05 772.149 1115.84 772.412 1117.16C772.674 1118.47 771.885 1119.79 770.571 1120.05C766.626 1120.84 762.418 1121.63 758.211 1122.42C757.948 1122.68 757.685 1122.68 757.685 1122.68ZM671.955 1117.42C671.692 1117.42 671.429 1117.42 671.166 1117.42C667.222 1116.37 663.277 1115.05 659.333 1113.74C658.018 1113.21 657.492 1111.9 657.754 1110.58C658.28 1109.27 659.596 1108.74 660.91 1109C664.855 1110.32 668.537 1111.63 672.481 1112.69C673.796 1112.95 674.585 1114.53 674.059 1115.84C674.059 1116.89 673.007 1117.42 671.955 1117.42ZM781.879 1117.42C780.827 1117.42 779.775 1116.63 779.512 1115.58C779.249 1114.26 779.775 1112.95 781.089 1112.42C785.034 1111.37 788.979 1110.06 792.66 1108.74C793.975 1108.21 795.29 1109 795.816 1110.32C796.342 1111.63 795.553 1112.95 794.238 1113.47C790.294 1114.79 786.349 1116.1 782.404 1117.16C782.141 1117.42 781.879 1117.42 781.879 1117.42ZM648.55 1109.27C648.287 1109.27 648.025 1109.27 647.499 1109C643.554 1107.43 639.872 1105.58 636.191 1103.74C634.876 1103.22 634.35 1101.64 635.139 1100.33C635.665 1099.01 637.243 1098.48 638.558 1099.27C642.239 1101.11 645.921 1102.69 649.602 1104.27C650.917 1104.8 651.443 1106.37 650.917 1107.43C650.391 1108.74 649.602 1109.27 648.55 1109.27ZM805.02 1109.27C803.968 1109.27 803.18 1108.74 802.654 1107.69C802.128 1106.37 802.654 1105.06 803.968 1104.53C807.65 1102.96 811.332 1101.11 815.013 1099.54C816.328 1099.01 817.643 1099.54 818.432 1100.59C818.958 1101.9 818.432 1103.22 817.38 1104.01C813.698 1105.85 809.754 1107.69 806.072 1109.27C805.809 1109.27 805.283 1109.27 805.02 1109.27ZM626.461 1098.22C625.935 1098.22 625.672 1098.22 625.146 1097.96C621.464 1095.85 618.046 1093.75 614.627 1091.38C613.575 1090.6 613.049 1089.02 613.838 1087.97C614.627 1086.91 616.205 1086.39 617.257 1087.18C620.675 1089.54 624.094 1091.65 627.512 1093.49C628.564 1094.28 629.09 1095.59 628.302 1096.91C628.039 1097.96 627.25 1098.22 626.461 1098.22ZM827.11 1098.22C826.321 1098.22 825.532 1097.7 825.006 1096.91C824.217 1095.85 824.743 1094.28 825.795 1093.49C829.214 1091.38 832.895 1089.28 836.051 1087.18C837.103 1086.39 838.681 1086.65 839.47 1087.97C840.259 1089.02 839.996 1090.6 838.681 1091.38C835.262 1093.75 831.581 1095.85 828.162 1097.96C827.899 1098.22 827.636 1098.22 827.11 1098.22ZM605.949 1084.55C605.423 1084.55 604.897 1084.28 604.371 1084.02C600.952 1081.39 597.796 1078.76 594.641 1076.13C593.589 1075.34 593.589 1073.76 594.378 1072.71C595.167 1071.66 596.745 1071.66 597.797 1072.45C600.952 1075.08 604.108 1077.71 607.264 1080.08C608.315 1080.87 608.578 1082.44 607.789 1083.5C607.263 1084.28 606.475 1084.55 605.949 1084.55ZM847.622 1084.55C846.833 1084.55 846.044 1084.28 845.781 1083.5C844.992 1082.44 845.255 1080.87 846.307 1080.08C849.463 1077.71 852.619 1075.08 855.774 1072.45C856.826 1071.66 858.404 1071.66 859.193 1072.71C859.982 1073.76 859.982 1075.34 858.93 1076.13C855.774 1078.76 852.619 1081.39 849.2 1084.02C848.674 1084.28 848.148 1084.55 847.622 1084.55ZM587.015 1068.51C586.489 1068.51 585.7 1068.24 585.174 1067.72C582.281 1064.82 579.388 1061.93 576.496 1058.78C575.707 1057.72 575.707 1056.15 576.759 1055.36C577.811 1054.57 579.388 1054.57 580.177 1055.62C582.807 1058.51 585.7 1061.67 588.592 1064.3C589.644 1065.35 589.644 1066.93 588.592 1067.72C588.329 1068.24 587.804 1068.51 587.015 1068.51ZM866.556 1068.51C866.03 1068.51 865.241 1068.24 864.715 1067.72C863.664 1066.66 863.664 1065.09 864.715 1064.3C867.608 1061.41 870.501 1058.51 873.13 1055.62C873.919 1054.57 875.497 1054.57 876.549 1055.36C877.601 1056.15 877.601 1057.72 876.812 1058.78C873.919 1061.93 871.027 1064.82 868.134 1067.72C867.608 1068.24 867.082 1068.51 866.556 1068.51ZM570.447 1050.36C569.658 1050.36 569.132 1050.1 568.606 1049.57C565.977 1046.42 563.347 1043 560.98 1039.58C560.191 1038.53 560.454 1036.95 561.506 1036.16C562.558 1035.37 564.136 1035.63 564.925 1036.69C567.292 1040.1 569.658 1043.26 572.288 1046.42C573.077 1047.47 573.077 1049.05 572.025 1049.83C571.499 1050.1 570.973 1050.36 570.447 1050.36ZM883.124 1050.36C882.598 1050.36 882.072 1050.1 881.546 1049.83C880.494 1049.05 880.231 1047.47 881.283 1046.42C883.912 1043.26 886.279 1040.1 888.646 1036.69C889.435 1035.63 891.013 1035.37 892.065 1036.16C893.117 1036.95 893.38 1038.53 892.591 1039.58C890.224 1043 887.594 1046.42 884.964 1049.57C884.438 1049.83 883.913 1050.36 883.124 1050.36ZM556.246 1030.11C555.458 1030.11 554.669 1029.59 554.143 1029.06C552.039 1025.64 549.935 1021.96 547.831 1018.28C547.305 1016.96 547.569 1015.65 548.883 1014.86C550.198 1014.33 551.513 1014.6 552.302 1015.91C554.143 1019.59 556.247 1023.01 558.35 1026.43C559.139 1027.48 558.613 1029.06 557.561 1029.85C557.035 1030.11 556.509 1030.11 556.246 1030.11ZM897.324 1030.11C896.798 1030.11 896.535 1030.11 896.009 1029.85C894.958 1029.06 894.431 1027.48 895.22 1026.43C897.324 1023.01 899.428 1019.33 901.269 1015.91C901.795 1014.6 903.372 1014.33 904.687 1014.86C906.002 1015.38 906.265 1016.96 905.739 1018.28C903.899 1021.96 901.795 1025.64 899.428 1029.06C898.902 1029.59 898.113 1030.11 897.324 1030.11ZM544.413 1008.55C543.361 1008.55 542.572 1008.02 542.046 1007.23C540.205 1003.55 538.627 999.606 537.05 995.662C536.524 994.347 537.313 993.032 538.364 992.506C539.679 991.98 540.994 992.769 541.52 993.821C543.098 997.502 544.676 1001.45 546.254 1005.13C546.78 1006.44 546.254 1007.76 544.939 1008.28C545.202 1008.28 544.676 1008.55 544.413 1008.55ZM909.158 1008.28C908.895 1008.28 908.369 1008.28 908.106 1008.02C906.791 1007.5 906.265 1005.92 906.791 1004.87C908.369 1001.18 910.21 997.502 911.525 993.558C912.051 992.243 913.366 991.717 914.681 992.243C915.995 992.769 916.521 994.084 915.995 995.399C914.418 999.343 912.84 1003.29 910.999 1006.97C910.999 1007.76 909.947 1008.28 909.158 1008.28ZM535.471 985.406C534.42 985.406 533.368 984.617 533.105 983.565C531.79 979.62 530.738 975.676 529.686 971.468C529.423 970.153 530.212 968.838 531.527 968.575C532.842 968.312 534.157 969.101 534.42 970.416C535.472 974.361 536.523 978.305 537.838 982.25C538.364 983.565 537.575 984.88 536.261 985.406C535.998 985.406 535.734 985.406 535.471 985.406ZM918.099 985.143C917.836 985.143 917.573 985.143 917.31 985.143C915.995 984.617 915.207 983.302 915.732 981.987C917.047 978.042 918.099 974.098 919.151 970.153C919.414 968.838 920.729 968.049 922.044 968.312C923.358 968.575 924.148 969.89 923.885 971.205C922.833 975.15 921.781 979.357 920.466 983.302C919.94 984.617 919.151 985.143 918.099 985.143ZM529.423 961.475C528.371 961.475 527.319 960.686 527.056 959.371C526.267 955.164 525.742 951.219 525.216 947.011C524.953 945.697 526.004 944.382 527.319 944.382C528.634 944.119 529.949 945.171 529.949 946.485C530.475 950.43 531.001 954.638 531.79 958.582C532.053 959.897 531.264 961.212 529.949 961.475C529.686 961.475 529.686 961.475 529.423 961.475ZM924.148 961.212C923.885 961.212 923.885 961.212 923.622 961.212C922.307 960.949 921.518 959.634 921.518 958.319C922.307 954.375 922.833 950.167 923.358 946.222C923.621 944.908 924.673 943.856 925.988 944.119C927.303 944.382 928.355 945.434 928.092 946.748C927.566 950.956 927.04 955.164 926.251 959.108C926.251 960.423 925.199 961.212 924.148 961.212ZM526.267 937.018C524.952 937.018 523.901 935.966 523.901 934.652C523.638 930.444 523.638 926.236 523.638 922.029C523.638 920.714 524.69 919.662 526.004 919.662C527.319 919.662 528.371 920.714 528.371 922.029C528.371 925.973 528.634 930.181 528.634 934.126C528.897 935.703 527.845 936.755 526.267 937.018C526.53 937.018 526.53 937.018 526.267 937.018ZM927.04 936.755C925.462 936.755 924.41 935.44 924.673 934.126C924.936 930.181 924.937 925.973 924.937 922.029L924.937 921.503C924.937 920.188 925.988 919.136 927.303 919.136C928.618 919.136 929.67 920.188 929.67 921.503L929.67 922.029C929.67 926.236 929.67 930.444 929.407 934.652C929.407 935.703 928.355 936.755 927.04 936.755ZM526.267 912.299C524.69 912.299 523.638 910.984 523.901 909.669C524.164 905.461 524.427 901.254 524.952 897.309C525.215 895.994 526.267 894.942 527.582 895.205C528.897 895.468 529.949 896.52 529.686 897.835C529.16 901.78 528.897 905.987 528.634 909.932C528.634 911.247 527.582 912.299 526.267 912.299ZM927.04 911.51C925.725 911.51 924.673 910.458 924.673 909.143C924.41 905.198 924.148 900.991 923.622 897.046C923.359 895.731 924.41 894.417 925.725 894.417C927.04 894.154 928.355 895.205 928.355 896.52C928.881 900.728 929.144 904.935 929.407 908.88C929.67 910.195 928.618 911.51 927.04 911.51ZM529.423 887.842C529.16 887.842 529.16 887.842 528.897 887.842C527.582 887.579 526.793 886.264 526.793 884.95C527.582 880.742 528.371 876.797 529.423 872.853C529.686 871.538 531.001 870.749 532.316 871.012C533.631 871.275 534.42 872.59 534.157 873.905C533.105 877.849 532.316 881.794 531.527 885.738C531.527 886.79 530.475 887.842 529.423 887.842ZM923.885 887.053C922.833 887.053 921.781 886.264 921.518 884.95C920.729 881.005 919.94 877.06 918.888 873.116C918.625 871.801 919.414 870.486 920.729 870.223C922.044 869.96 923.359 870.749 923.622 872.064C924.674 876.008 925.463 880.216 926.251 884.16C926.514 885.475 925.725 886.79 924.41 887.053C924.147 887.053 924.148 887.053 923.885 887.053ZM535.209 863.649C534.946 863.649 534.683 863.649 534.42 863.649C533.105 863.123 532.316 861.808 532.842 860.493C534.157 856.548 535.472 852.604 537.05 848.659C537.576 847.344 538.89 846.818 540.205 847.344C541.52 847.87 542.046 849.185 541.52 850.5C539.942 854.181 538.627 858.126 537.575 862.071C537.312 863.123 536.26 863.649 535.209 863.649ZM917.836 863.123C916.784 863.123 915.732 862.334 915.469 861.282C914.154 857.337 912.84 853.656 911.262 849.711C910.736 848.396 911.525 847.081 912.577 846.555C913.891 846.029 915.207 846.818 915.732 847.87C917.31 851.815 918.625 855.759 919.94 859.704C920.466 861.019 919.677 862.334 918.362 862.86C918.362 863.123 918.099 863.123 917.836 863.123ZM544.15 840.77C543.887 840.77 543.361 840.77 543.098 840.507C541.783 839.981 541.257 838.403 541.783 837.351C543.624 833.669 545.464 829.725 547.305 826.043C547.831 824.728 549.409 824.465 550.724 824.991C552.039 825.517 552.302 827.095 551.776 828.41C549.935 832.092 548.094 835.773 546.254 839.455C545.991 840.244 545.202 840.77 544.15 840.77ZM908.895 839.981C907.843 839.981 907.054 839.455 906.528 838.666C904.951 834.984 903.109 831.303 901.006 827.884C900.48 826.569 900.743 825.254 902.058 824.465C903.372 823.939 904.687 824.202 905.476 825.517C907.58 829.199 909.421 832.881 910.999 836.562C911.525 837.877 910.999 839.192 909.684 839.718C909.684 839.981 909.158 839.981 908.895 839.981ZM555.984 818.943C555.458 818.943 555.195 818.943 554.669 818.68C553.617 817.891 553.091 816.313 553.88 815.261C555.983 811.843 558.35 808.161 560.717 804.742C561.506 803.69 563.084 803.427 564.136 804.216C565.188 805.005 565.451 806.583 564.662 807.635C562.295 811.054 559.928 814.472 557.824 817.891C557.561 818.417 556.772 818.943 555.984 818.943ZM897.324 818.417C896.535 818.417 895.746 817.891 895.22 817.365C893.117 813.946 890.75 810.528 888.383 807.109C887.594 806.057 887.857 804.479 888.909 803.69C889.961 802.901 891.539 803.164 892.328 804.216C894.694 807.635 897.061 811.054 899.165 814.735C899.954 815.787 899.428 817.365 898.376 818.154C898.113 818.154 897.587 818.417 897.324 818.417ZM570.184 798.694C569.658 798.694 569.132 798.431 568.606 798.168C567.555 797.379 567.291 795.801 568.343 794.749C570.973 791.594 573.603 788.438 576.496 785.282C577.285 784.23 578.862 784.23 579.914 785.019C580.966 785.808 580.966 787.386 580.177 788.438C577.547 791.331 574.655 794.486 572.288 797.642C571.762 798.431 570.973 798.694 570.184 798.694ZM882.861 798.168C882.072 798.168 881.546 797.905 881.02 797.379C878.39 794.223 875.76 791.068 873.13 788.175C872.342 787.123 872.341 785.545 873.393 784.756C874.445 783.704 876.023 783.967 876.812 785.019C879.705 788.175 882.335 791.331 884.964 794.486C885.753 795.538 885.753 797.116 884.701 797.905C883.912 798.168 883.387 798.168 882.861 798.168ZM586.751 780.549C586.225 780.549 585.437 780.286 584.911 779.76C583.859 778.708 583.859 777.13 584.911 776.341C587.803 773.448 590.959 770.556 594.115 767.926C595.167 767.137 596.745 767.137 597.534 768.189C598.323 769.241 598.322 770.819 597.27 771.608C594.115 774.237 591.222 777.13 588.33 779.76C588.067 780.286 587.54 780.549 586.751 780.549ZM866.293 780.023C865.767 780.023 864.978 779.76 864.452 779.234C861.56 776.341 858.404 773.711 855.511 771.082C854.459 770.293 854.459 768.715 855.248 767.663C856.037 766.611 857.615 766.611 858.667 767.4C861.823 770.03 864.978 772.922 867.871 775.815C868.923 776.867 868.923 778.445 867.871 779.234C867.608 779.76 866.819 780.023 866.293 780.023ZM605.686 764.244C604.897 764.244 604.108 763.981 603.845 763.192C603.056 762.14 603.319 760.563 604.371 759.774C607.79 757.144 611.208 754.777 614.627 752.41C615.679 751.622 617.256 751.885 618.045 753.199C618.834 754.251 618.572 755.829 617.257 756.618C613.838 758.985 610.419 761.352 607.264 763.718C606.738 764.244 606.212 764.244 605.686 764.244ZM847.359 763.981C846.833 763.981 846.307 763.718 845.781 763.455C842.625 761.088 839.207 758.722 835.788 756.355C834.736 755.566 834.21 753.988 834.999 752.936C835.788 751.884 837.366 751.359 838.418 752.148C841.837 754.514 845.255 756.881 848.674 759.248C849.726 760.037 849.989 761.615 849.2 762.666C848.937 763.718 848.148 763.981 847.359 763.981ZM626.198 750.57C625.409 750.57 624.62 750.044 624.094 749.255C623.305 748.203 623.831 746.625 624.883 745.836C628.564 743.732 632.246 741.628 635.928 739.788C637.243 739.262 638.557 739.788 639.346 740.84C639.872 742.154 639.347 743.469 638.295 744.258C634.613 746.099 631.194 747.94 627.512 750.044C626.986 750.57 626.461 750.57 626.198 750.57ZM826.847 750.307C826.321 750.307 826.058 750.307 825.532 750.044C822.113 747.94 818.432 746.099 814.75 744.258C813.435 743.732 812.909 742.154 813.698 740.839C814.224 739.525 815.802 738.999 817.117 739.788C820.799 741.628 824.48 743.732 828.162 745.573C829.214 746.362 829.74 747.677 828.951 748.992C828.425 750.044 827.636 750.307 826.847 750.307ZM648.287 739.525C647.236 739.525 646.447 738.999 645.921 737.947C645.395 736.632 645.921 735.317 647.235 734.791C651.18 733.213 654.862 731.635 658.806 730.321C660.121 729.795 661.436 730.583 661.962 731.898C662.488 733.213 661.699 734.528 660.384 735.054C656.703 736.369 652.758 737.947 649.077 739.525C648.814 739.525 648.55 739.525 648.287 739.525ZM804.757 739.262C804.494 739.262 804.231 739.262 803.705 738.999C800.024 737.421 796.079 735.843 792.397 734.528C791.083 734.002 790.557 732.687 790.82 731.372C791.346 730.058 792.66 729.532 793.975 729.795C797.92 731.11 801.865 732.687 805.546 734.265C806.861 734.791 807.387 736.369 806.861 737.421C806.598 738.736 805.546 739.262 804.757 739.262ZM671.429 731.373C670.377 731.373 669.325 730.584 669.062 729.532C668.8 728.217 669.325 726.902 670.64 726.376C674.585 725.324 678.792 724.272 682.737 723.22C684.052 722.957 685.367 723.746 685.63 725.061C685.893 726.376 685.104 727.691 683.789 727.954C679.844 728.743 675.9 729.795 671.955 730.847C671.955 731.373 671.692 731.373 671.429 731.373ZM781.352 731.11C781.089 731.11 780.827 731.11 780.564 731.11C776.619 730.058 772.674 729.006 768.73 728.217C767.415 727.954 766.626 726.639 766.889 725.324C767.152 724.009 768.467 723.22 769.782 723.483C773.726 724.272 777.934 725.324 781.878 726.376C783.193 726.639 783.982 728.217 783.456 729.532C783.456 730.584 782.404 731.11 781.352 731.11ZM695.623 726.113C694.308 726.113 693.256 725.324 693.256 724.009C692.993 722.694 694.045 721.379 695.36 721.116C699.567 720.59 703.512 720.065 707.72 719.539C709.034 719.539 710.349 720.328 710.349 721.643C710.349 722.957 709.561 724.272 708.246 724.272C704.301 724.535 700.094 725.061 696.149 725.85C695.886 726.113 695.623 726.113 695.623 726.113ZM757.159 725.85L756.896 725.85C752.951 725.324 748.744 724.798 744.799 724.272C743.484 724.272 742.432 722.957 742.432 721.643C742.432 720.328 743.747 719.276 745.062 719.276C749.27 719.539 753.477 720.065 757.422 720.854C758.737 721.116 759.789 722.431 759.526 723.746C759.526 725.061 758.474 725.85 757.159 725.85ZM720.08 723.746C718.765 723.746 717.713 722.694 717.713 721.379C717.713 720.064 718.765 718.75 720.08 718.75C724.287 718.487 728.495 718.487 732.702 718.75C734.017 718.75 735.069 719.802 735.069 721.379C735.069 722.694 734.017 723.746 732.439 723.746C728.495 723.746 724.287 723.746 720.08 723.746C720.343 723.746 720.343 723.746 720.08 723.746Z" fill="#0F0F0F"/>
<path d="M726.654 937.279C719.817 937.279 714.294 931.757 714.294 924.919L714.294 12.6617C714.294 5.82439 719.817 0.302058 726.654 0.302058C733.491 0.302057 739.014 5.82439 739.014 12.6617L739.014 924.919C739.014 931.757 733.491 937.279 726.654 937.279Z" fill="#0F0F0F"/>
<path d="M726.655 953.053C725.603 953.053 724.814 952.79 724.025 952.001L255.668 483.644C254.353 482.329 254.353 479.962 255.668 478.384L724.025 10.0271C725.34 8.71219 727.706 8.71219 729.284 10.0271L1197.64 478.384C1198.43 479.173 1198.69 479.962 1198.69 481.014C1198.69 482.066 1198.43 482.855 1197.64 483.644L729.284 952.001C728.758 952.79 727.706 953.053 726.655 953.053ZM263.557 481.014L726.655 944.112L1189.75 481.014L726.655 17.9163L263.557 481.014Z" fill="#0F0F0F"/>
<path d="M726.659 2398.09C725.344 2398.09 724.029 2397.3 723.503 2396.25L379.796 1825.6C379.007 1824.28 379.007 1822.71 380.059 1821.39L723.767 1347.51C725.081 1345.67 728.237 1345.67 729.815 1347.51L1073.52 1821.39C1074.31 1822.71 1074.57 1824.28 1073.79 1825.6L730.078 2396.25C729.289 2397.57 727.974 2398.09 726.659 2398.09ZM387.423 1824.28L726.659 2387.57L1065.9 1824.28L726.659 1356.45L387.423 1824.28Z" fill="#0F0F0F"/>
<path d="M1195.02 2437.81C1193.97 2437.81 1193.18 2437.55 1192.39 2436.76L726.661 1955.26L260.933 2436.76C259.619 2438.08 257.778 2438.34 256.2 2437.29C254.622 2436.24 254.096 2434.4 254.885 2432.82L723.242 1348.58C723.768 1347.26 725.083 1346.47 726.661 1346.47C728.238 1346.47 729.553 1347.26 730.079 1348.58L1198.17 2432.29C1198.44 2432.82 1198.7 2433.61 1198.7 2434.4C1198.96 2436.24 1197.12 2438.08 1195.02 2437.81C1195.02 2437.81 1195.28 2437.81 1195.02 2437.81ZM726.661 1946.32C727.713 1946.32 728.502 1946.84 729.29 1947.37L1183.71 2417.04L726.661 1359.36L269.611 2417.04L724.031 1947.37C724.82 1946.84 725.609 1946.32 726.661 1946.32Z" fill="#0F0F0F"/>
<path d="M1070.36 1836.38L382.942 1836.38C376.105 1836.38 370.582 1830.86 370.582 1824.02C370.582 1817.18 376.105 1811.66 382.942 1811.66L1070.36 1811.66C1077.19 1811.66 1082.72 1817.18 1082.72 1824.02C1082.72 1830.86 1077.19 1836.38 1070.36 1836.38Z" fill="#0F0F0F"/>
<path d="M726.654 2406.78C719.817 2406.78 714.294 2401.26 714.294 2394.42L714.294 1373.82C714.294 1366.98 719.817 1361.46 726.654 1361.46C733.491 1361.46 739.014 1366.98 739.014 1373.82L739.014 2394.42C739.014 2401.26 733.491 2406.78 726.654 2406.78Z" fill="#0F0F0F"/>
<path d="M726.643 2448.85C702.97 2448.85 683.778 2468.05 683.778 2491.72C683.778 2515.39 702.97 2534.58 726.643 2534.58C750.317 2534.58 769.508 2515.39 769.508 2491.72C769.508 2468.05 750.317 2448.85 726.643 2448.85Z" fill="#0F0F0F"/>
</svg>
